<?xml version="1.0" encoding="UTF-8" standalone="no"?>
<!-- Created with Inkscape (http://www.inkscape.org/) -->

<svg
   version="1.1"
   id="svg1"
   width="682.66669"
   height="682.60968"
   viewBox="0 0 682.66669 682.60968"
   sodipodi:docname="rss.png"
   inkscape:export-filename="../Projects/Maldus512/website/static/icons/icon-light-rss.svg"
   inkscape:export-xdpi="96"
   inkscape:export-ydpi="96"
   xmlns:inkscape="http://www.inkscape.org/namespaces/inkscape"
   xmlns:sodipodi="http://sodipodi.sourceforge.net/DTD/sodipodi-0.dtd"
   xmlns="http://www.w3.org/2000/svg"
   xmlns:svg="http://www.w3.org/2000/svg">
  <defs
     id="defs1" />
  <sodipodi:namedview
     id="namedview1"
     pagecolor="#505050"
     bordercolor="#ffffff"
     borderopacity="1"
     inkscape:showpageshadow="0"
     inkscape:pageopacity="0"
     inkscape:pagecheckerboard="1"
     inkscape:deskcolor="#505050" />
  <g
     inkscape:groupmode="layer"
     inkscape:label="Image"
     id="g1">
    <path
       style="fill:#8baed1;fill-opacity:1"
       d="M 69.620707,679.97516 C 37.304137,671.50824 10.921657,644.9434 2.629327,612.52071 0.05642701,602.46075 -2.9882813e-6,596.64083 -2.9882813e-6,341.33334 -2.9882813e-6,86.025853 0.05639701,80.205943 2.629327,70.145973 10.990287,37.454963 37.454967,10.990283 70.145977,2.629333 80.205937,0.056428 86.025857,0 341.33334,0 c 255.30749,0 261.12741,0.05643 271.18737,2.629333 32.69101,8.36095 59.15569,34.82563 67.51664,67.51664 2.57291,10.05997 2.62934,15.87988 2.62934,271.187367 0,255.30749 -0.0564,261.12741 -2.62934,271.18737 -8.36095,32.69101 -34.82563,59.15569 -67.51664,67.51664 -10.0653,2.57427 -15.75595,2.6278 -271.73398,2.55592 -252.866433,-0.071 -261.772393,-0.15699 -271.166023,-2.61811 z M 184.61127,572.62509 c 31.03761,-8.08427 51.18629,-37.8173 46.43373,-68.52141 -5.39224,-34.83685 -38.59907,-58.62652 -72.03967,-51.60987 -27.70725,5.81366 -45.71425,24.84158 -49.78643,52.6091 -6.1303,41.80154 34.48516,78.17716 75.39237,67.52218 z M 415.36862,562.33335 C 411.82661,509.80174 400.18213,468.43778 377.13868,426.5316 325.68641,332.96192 231.00171,273.43888 123.66667,267.18774 L 108,266.27532 v 44.65838 44.65838 l 15,0.87372 c 37.78347,2.20081 73.33861,14.36604 107.00001,36.61016 18.80542,12.42699 46.25451,39.99226 59.13938,59.3897 11.49853,17.31037 19.88196,34.35906 26.09411,53.06542 6.05844,18.24349 8.46339,30.14511 10.40031,51.46894 l 1.60473,17.66666 h 44.48083 44.48084 z m 158.63362,-2.66667 c -2.03409,-37.77591 -6.7432,-70.02475 -14.81076,-101.42675 -45.7955,-178.25344 -193.95222,-314.43455 -374.44794,-344.18104 -23.71515,-3.90836 -46.0072,-6.04802 -63.07687,-6.05433 l -12.33333,-0.005 v 43.87557 43.87557 l 13,0.83789 c 51.63945,3.32831 92.23588,12.53102 133.63072,30.29243 107.00975,45.91499 188.82636,141.63275 217.38753,254.32301 6.85589,27.05044 11.92783,63.4099 11.968,85.79555 l 0.0138,7.66666 h 44.73829 44.7383 z"
       id="path1" />
  </g>
</svg>
