<?xml version="1.0" encoding="UTF-8" standalone="no"?>
<!-- Uploaded to: SVG Repo, www.svgrepo.com, Generator: SVG Repo Mixer Tools -->

<svg
   fill="#000000"
   width="799.96118"
   height="800"
   viewBox="0 0 511.97516 512"
   version="1.1"
   id="svg1"
   sodipodi:docname="sun.svg"
   xmlns:inkscape="http://www.inkscape.org/namespaces/inkscape"
   xmlns:sodipodi="http://sodipodi.sourceforge.net/DTD/sodipodi-0.dtd"
   xmlns="http://www.w3.org/2000/svg"
   xmlns:svg="http://www.w3.org/2000/svg">
  <defs
     id="defs1" />
  <sodipodi:namedview
     id="namedview1"
     pagecolor="#505050"
     bordercolor="#ffffff"
     borderopacity="1"
     inkscape:showpageshadow="0"
     inkscape:pageopacity="0"
     inkscape:pagecheckerboard="1"
     inkscape:deskcolor="#505050" />
  <path
     d="m 256,160 c -52.9,0 -96,43.1 -96,96 0,52.9 43.1,96 96,96 52.9,0 96,-43.1 96,-96 0,-52.9 -43.1,-96 -96,-96 z M 502.4,240.5 407.7,193.2 441.2,92.8 C 445.7,79.2 432.8,66.3 419.3,70.9 L 318.9,104.4 271.5,9.6 c -6.4,-12.8 -24.6,-12.8 -31,0 L 193.2,104.3 92.7,70.8 C 79.1,66.3 66.2,79.2 70.8,92.7 l 33.5,100.4 -94.7,47.4 c -12.8,6.4 -12.8,24.6 0,31 l 94.7,47.3 -33.5,100.5 c -4.5,13.6 8.4,26.5 21.9,21.9 l 100.4,-33.5 47.3,94.7 c 6.4,12.8 24.6,12.8 31,0 l 47.3,-94.7 100.4,33.5 c 13.6,4.5 26.5,-8.4 21.9,-21.9 l -33.5,-100.4 94.7,-47.3 c 13,-6.5 13,-24.7 0.2,-31.1 z m -155.9,106 c -49.9,49.9 -131.1,49.9 -181,0 -49.9,-49.9 -49.9,-131.1 0,-181 49.9,-49.9 131.1,-49.9 181,0 49.9,49.9 49.9,131.1 0,181 z"
     id="path1"
     style="fill:#8cafd2;fill-opacity:1" />
</svg>
