<?xml version="1.0" encoding="UTF-8"?>
<!DOCTYPE svg PUBLIC "-//W3C//DTD SVG 1.1//EN" "http://www.w3.org/Graphics/SVG/1.1/DTD/svg11.dtd">
<svg xmlns="http://www.w3.org/2000/svg" version="1.1" width="600px" height="775px" style="shape-rendering:geometricPrecision; text-rendering:geometricPrecision; image-rendering:optimizeQuality; fill-rule:evenodd; clip-rule:evenodd" xmlns:xlink="http://www.w3.org/1999/xlink">
<g><path style="opacity:1" fill="#8f8f8f" d="M 135.5,-0.5 C 275.5,-0.5 415.5,-0.5 555.5,-0.5C 555.5,-0.166667 555.5,0.166667 555.5,0.5C 555.5,0.833333 555.5,1.16667 555.5,1.5C 415.506,0.174907 275.506,0.174907 135.5,1.5C 135.5,1.16667 135.5,0.833333 135.5,0.5C 135.5,0.166667 135.5,-0.166667 135.5,-0.5 Z"/></g>
<g><path style="opacity:1" fill="#696969" d="M 135.5,0.5 C 135.5,0.833333 135.5,1.16667 135.5,1.5C 129.123,1.92794 122.79,2.59461 116.5,3.5C 116.611,2.88258 116.944,2.38258 117.5,2C 123.455,0.928347 129.455,0.428347 135.5,0.5 Z"/></g>
<g><path style="opacity:1" fill="#8eafd0" d="M 555.5,1.5 C 558.482,1.96286 561.482,2.29619 564.5,2.5C 565.167,2.83333 565.833,3.16667 566.5,3.5C 568.507,5.83729 571.173,7.17063 574.5,7.5C 576.299,10.6296 578.966,12.6296 582.5,13.5C 584.194,14.5274 585.527,15.8608 586.5,17.5C 586.75,19.674 587.75,21.3406 589.5,22.5C 589.427,24.0269 590.094,25.0269 591.5,25.5C 591.427,27.0269 592.094,28.0269 593.5,28.5C 593.054,31.0101 593.72,33.0101 595.5,34.5C 594.99,37.3878 595.656,39.7211 597.5,41.5C 597.5,42.5 597.5,43.5 597.5,44.5C 597.5,242.167 597.5,439.833 597.5,637.5C 597.5,638.5 597.5,639.5 597.5,640.5C 596.883,640.611 596.383,640.944 596,641.5C 595.467,644.929 594.633,648.262 593.5,651.5C 593.167,652.833 592.833,654.167 592.5,655.5C 590.467,657.163 588.634,659.163 587,661.5C 586.517,662.448 586.351,663.448 586.5,664.5C 584.5,667.167 582.167,669.5 579.5,671.5C 576.733,671.87 574.733,673.204 573.5,675.5C 573.167,675.5 572.833,675.5 572.5,675.5C 570.435,675.953 568.768,676.953 567.5,678.5C 563.655,678.288 560.321,679.288 557.5,681.5C 536.277,682.8 514.944,683.467 493.5,683.5C 473.167,683.333 452.833,683.167 432.5,683C 431.756,681.961 430.756,681.461 429.5,681.5C 429.389,680.883 429.056,680.383 428.5,680C 424.888,678.85 421.222,678.017 417.5,677.5C 417.027,676.094 416.027,675.427 414.5,675.5C 413.833,675.5 413.5,675.167 413.5,674.5C 413.027,673.094 412.027,672.427 410.5,672.5C 406.803,667.725 403.136,663.059 399.5,658.5C 399.5,657.833 399.5,657.167 399.5,656.5C 395.926,645.972 395.592,635.305 398.5,624.5C 398.833,623.833 399.167,623.167 399.5,622.5C 401.931,620.954 403.264,618.621 403.5,615.5C 407.906,611.422 412.239,607.422 416.5,603.5C 421.264,602.605 425.597,600.938 429.5,598.5C 430.167,598.5 430.833,598.5 431.5,598.5C 458.833,598.5 486.167,598.5 513.5,598.5C 513.5,570.5 513.5,542.5 513.5,514.5C 384.666,514.167 255.999,514.5 127.5,515.5C 123.818,515.335 120.152,515.501 116.5,516C 114.347,516.099 112.681,516.933 111.5,518.5C 109.833,519.167 108.167,519.833 106.5,520.5C 104.302,520.12 102.635,520.787 101.5,522.5C 98.9664,522.259 97.2998,523.259 96.5,525.5C 94.5,525.5 93.5,526.5 93.5,528.5C 92.5,528.5 91.5,528.5 90.5,528.5C 90.5,529.5 90.5,530.5 90.5,531.5C 88.9519,531.821 88.2852,532.821 88.5,534.5C 87.8333,536.167 87.1667,537.833 86.5,539.5C 85.1858,541.915 84.5191,544.748 84.5,548C 84.6667,550.833 84.8333,553.667 85,556.5C 85.2401,558.852 86.0735,560.852 87.5,562.5C 89.1765,563.183 89.8432,564.517 89.5,566.5C 89.0311,569.393 90.0311,571.393 92.5,572.5C 92.8333,573.167 93.1667,573.833 93.5,574.5C 94.1355,576.795 95.4689,578.461 97.5,579.5C 98.3382,579.842 98.6716,580.508 98.5,581.5C 98.369,582.239 98.5357,582.906 99,583.5C 106.03,589.7 112.863,596.033 119.5,602.5C 119.541,606.236 120.874,609.236 123.5,611.5C 123.557,612.609 123.89,613.609 124.5,614.5C 124.5,620.833 124.5,627.167 124.5,633.5C 124.672,634.492 124.338,635.158 123.5,635.5C 121.315,639.213 119.648,643.213 118.5,647.5C 116.088,647.694 115.088,649.027 115.5,651.5C 113.5,652.833 111.833,654.5 110.5,656.5C 110.5,657.167 110.167,657.5 109.5,657.5C 107.821,657.285 106.821,657.952 106.5,659.5C 103.088,660.042 100.088,661.375 97.5,663.5C 97.5,664.167 97.1667,664.5 96.5,664.5C 86.73,666.135 77.0633,665.802 67.5,663.5C 65.4471,663.598 63.7804,662.931 62.5,661.5C 62.0269,660.094 61.0269,659.427 59.5,659.5C 59.0269,658.094 58.0269,657.427 56.5,657.5C 55.7298,655.065 54.0632,653.731 51.5,653.5C 49.9385,651.027 47.9385,649.027 45.5,647.5C 43.7607,644.757 41.4274,642.757 38.5,641.5C 37.9305,638.665 36.2639,636.999 33.5,636.5C 33.5,636.167 33.5,635.833 33.5,635.5C 32.6519,632.112 30.6519,629.779 27.5,628.5C 26.6618,628.158 26.3284,627.492 26.5,626.5C 26.0195,623.166 24.3528,620.833 21.5,619.5C 21.1667,618.833 20.8333,618.167 20.5,617.5C 20.0871,613.662 18.4205,610.662 15.5,608.5C 15.1667,607.833 14.8333,607.167 14.5,606.5C 11.3951,597.949 8.56174,589.282 6,580.5C 5.61742,579.944 5.11742,579.611 4.5,579.5C 3.69929,577.958 3.36596,576.292 3.5,574.5C 3.78472,571.171 3.11805,568.171 1.5,565.5C 0.527063,420.172 0.193729,274.839 0.5,129.5C 2.13661,124.073 3.13661,118.407 3.5,112.5C 3.5,112.167 3.5,111.833 3.5,111.5C 6.23205,105.627 8.23205,99.2938 9.5,92.5C 9.5,92.1667 9.5,91.8333 9.5,91.5C 11.5587,89.7396 12.892,87.4062 13.5,84.5C 14.1667,82.5 14.8333,80.5 15.5,78.5C 16.3764,78.6309 17.0431,78.2975 17.5,77.5C 21.66,69.1766 26.3266,61.1766 31.5,53.5C 39.9048,43.7592 49.2381,35.0926 59.5,27.5C 63.5712,26.1385 66.9045,23.8052 69.5,20.5C 73.2507,19.5883 76.584,17.9216 79.5,15.5C 84.7621,14.4285 89.4288,12.4285 93.5,9.5C 93.8333,9.5 94.1667,9.5 94.5,9.5C 98.1939,8.62738 101.861,7.62738 105.5,6.5C 109.214,6.40975 112.548,5.40975 115.5,3.5C 115.833,3.5 116.167,3.5 116.5,3.5C 122.79,2.59461 129.123,1.92794 135.5,1.5C 275.506,0.174907 415.506,0.174907 555.5,1.5 Z M 141.5,85.5 C 265.167,85.5 388.833,85.5 512.5,85.5C 512.5,200.167 512.5,314.833 512.5,429.5C 387.167,429.5 261.833,429.5 136.5,429.5C 131.138,429.472 125.805,429.806 120.5,430.5C 117.14,430.616 113.807,430.949 110.5,431.5C 105.81,432.138 101.144,432.971 96.5,434C 95.944,434.383 95.6107,434.883 95.5,435.5C 94.8333,435.5 94.1667,435.5 93.5,435.5C 90.7334,435.858 88.0667,436.525 85.5,437.5C 85.1755,334.811 85.5088,232.145 86.5,129.5C 87.815,125.843 89.1483,122.176 90.5,118.5C 91.4918,116.544 92.4918,114.544 93.5,112.5C 94.1667,112.5 94.5,112.167 94.5,111.5C 95.8897,110.101 96.8897,108.434 97.5,106.5C 98.5,106.167 99.1667,105.5 99.5,104.5C 101.5,103.167 103.167,101.5 104.5,99.5C 105.167,99.5 105.5,99.1667 105.5,98.5C 107.23,97.9744 108.564,96.9744 109.5,95.5C 111.062,95.2671 112.395,94.6005 113.5,93.5C 117.906,91.4842 122.239,89.4842 126.5,87.5C 128.861,87.3259 131.194,86.9926 133.5,86.5C 136.167,86.1667 138.833,85.8333 141.5,85.5 Z"/></g>
<g><path style="opacity:1" fill="#5c5c5c" d="M 555.5,1.5 C 555.5,1.16667 555.5,0.833333 555.5,0.5C 558.829,0.21528 561.829,0.881947 564.5,2.5C 561.482,2.29619 558.482,1.96286 555.5,1.5 Z"/></g>
<g><path style="opacity:1" fill="#a5a5a6" d="M 115.5,3.5 C 112.548,5.40975 109.214,6.40975 105.5,6.5C 105.5,6.16667 105.5,5.83333 105.5,5.5C 108.728,4.45444 112.061,3.78777 115.5,3.5 Z"/></g>
<g><path style="opacity:1" fill="#838383" d="M 566.5,3.5 C 569.721,3.89612 572.388,5.22946 574.5,7.5C 571.173,7.17063 568.507,5.83729 566.5,3.5 Z"/></g>
<g><path style="opacity:1" fill="#6a6a6a" d="M 105.5,5.5 C 105.5,5.83333 105.5,6.16667 105.5,6.5C 101.861,7.62738 98.1939,8.62738 94.5,9.5C 97.5531,7.03203 101.22,5.6987 105.5,5.5 Z"/></g>
<g><path style="opacity:1" fill="#838383" d="M 574.5,7.5 C 577.455,9.12232 580.122,11.1223 582.5,13.5C 578.966,12.6296 576.299,10.6296 574.5,7.5 Z"/></g>
<g><path style="opacity:1" fill="#898989" d="M 93.5,9.5 C 89.4288,12.4285 84.7621,14.4285 79.5,15.5C 80.0577,14.2101 81.0577,13.3768 82.5,13C 86.1653,11.7222 89.832,10.5555 93.5,9.5 Z"/></g>
<g><path style="opacity:1" fill="#808080" d="M 79.5,15.5 C 76.584,17.9216 73.2507,19.5883 69.5,20.5C 72.3677,18.0875 75.701,16.4208 79.5,15.5 Z"/></g>
<g><path style="opacity:1" fill="#696969" d="M 586.5,17.5 C 588.25,18.6594 589.25,20.326 589.5,22.5C 587.75,21.3406 586.75,19.674 586.5,17.5 Z"/></g>
<g><path style="opacity:1" fill="#878788" d="M 69.5,20.5 C 66.9045,23.8052 63.5712,26.1385 59.5,27.5C 62.2329,24.4535 65.5662,22.1202 69.5,20.5 Z"/></g>
<g><path style="opacity:1" fill="#7b7b7b" d="M 589.5,22.5 C 590.906,22.9731 591.573,23.9731 591.5,25.5C 590.094,25.0269 589.427,24.0269 589.5,22.5 Z"/></g>
<g><path style="opacity:1" fill="#5d5d5d" d="M 591.5,25.5 C 592.906,25.9731 593.573,26.9731 593.5,28.5C 592.094,28.0269 591.427,27.0269 591.5,25.5 Z"/></g>
<g><path style="opacity:1" fill="#818181" d="M 593.5,28.5 C 595.074,30.1016 595.741,32.1016 595.5,34.5C 593.72,33.0101 593.054,31.0101 593.5,28.5 Z"/></g>
<g><path style="opacity:1" fill="#979797" d="M 595.5,34.5 C 596.612,36.5994 597.279,38.9327 597.5,41.5C 595.656,39.7211 594.99,37.3878 595.5,34.5 Z"/></g>
<g><path style="opacity:1" fill="#686868" d="M 59.5,27.5 C 49.2381,35.0926 39.9048,43.7592 31.5,53.5C 38.5971,42.4021 47.9304,33.7354 59.5,27.5 Z"/></g>
<g><path style="opacity:1" fill="#707070" d="M 597.5,44.5 C 598.167,45.1667 598.833,45.8333 599.5,46.5C 599.5,243.167 599.5,439.833 599.5,636.5C 598.833,636.833 598.167,637.167 597.5,637.5C 597.5,439.833 597.5,242.167 597.5,44.5 Z"/></g>
<g><path style="opacity:1" fill="#818282" d="M 31.5,53.5 C 26.3266,61.1766 21.66,69.1766 17.5,77.5C 17.0431,78.2975 16.3764,78.6309 15.5,78.5C 19.2927,69.0687 24.626,60.7354 31.5,53.5 Z"/></g>
<g><path style="opacity:1" fill="#595959" d="M 15.5,78.5 C 14.8333,80.5 14.1667,82.5 13.5,84.5C 12.8333,84.8333 12.1667,85.1667 11.5,85.5C 12.0787,82.6689 13.412,80.3356 15.5,78.5 Z"/></g>
<g><path style="opacity:1" fill="#8c8c8c" d="M 141.5,84.5 C 141.5,84.8333 141.5,85.1667 141.5,85.5C 138.833,85.8333 136.167,86.1667 133.5,86.5C 135.635,84.631 138.302,83.9644 141.5,84.5 Z"/></g>
<g><path style="opacity:0.071" fill="#474747" d="M 141.5,85.5 C 141.5,85.1667 141.5,84.8333 141.5,84.5C 265.5,84.5 389.5,84.5 513.5,84.5C 513.833,199.668 513.5,314.668 512.5,429.5C 512.5,314.833 512.5,200.167 512.5,85.5C 388.833,85.5 265.167,85.5 141.5,85.5 Z"/></g>
<g><path style="opacity:1" fill="#9c9c9d" d="M 13.5,84.5 C 12.892,87.4062 11.5587,89.7396 9.5,91.5C 10.1667,89.5 10.8333,87.5 11.5,85.5C 12.1667,85.1667 12.8333,84.8333 13.5,84.5 Z"/></g>
<g><path style="opacity:1" fill="#7a7a7a" d="M 126.5,87.5 C 122.239,89.4842 117.906,91.4842 113.5,93.5C 114.122,91.665 115.456,90.4983 117.5,90C 120.432,88.8551 123.432,88.0218 126.5,87.5 Z"/></g>
<g><path style="opacity:1" fill="#777777" d="M 109.5,95.5 C 108.564,96.9744 107.23,97.9744 105.5,98.5C 106.035,96.5544 107.368,95.5544 109.5,95.5 Z"/></g>
<g><path style="opacity:1" fill="#7a7a7a" d="M 104.5,99.5 C 103.167,101.5 101.5,103.167 99.5,104.5C 99.8333,101.5 101.5,99.8333 104.5,99.5 Z"/></g>
<g><path style="opacity:1" fill="#848484" d="M 9.5,92.5 C 8.23205,99.2938 6.23205,105.627 3.5,111.5C 4.21892,106.407 5.38559,101.407 7,96.5C 7.20041,94.6803 8.03374,93.347 9.5,92.5 Z"/></g>
<g><path style="opacity:1" fill="#707070" d="M 97.5,106.5 C 96.8897,108.434 95.8897,110.101 94.5,111.5C 94.2591,108.966 95.2591,107.3 97.5,106.5 Z"/></g>
<g><path style="opacity:1" fill="#777777" d="M 93.5,112.5 C 92.4918,114.544 91.4918,116.544 90.5,118.5C 90.0311,115.607 91.0311,113.607 93.5,112.5 Z"/></g>
<g><path style="opacity:1" fill="#6b6b6b" d="M 3.5,112.5 C 3.13661,118.407 2.13661,124.073 0.5,129.5C 0.450168,124.448 0.950168,119.448 2,114.5C 2.27842,113.584 2.77842,112.918 3.5,112.5 Z"/></g>
<g><path style="opacity:1" fill="#757575" d="M 86.5,129.5 C 85.5088,232.145 85.1755,334.811 85.5,437.5C 84.5006,337.001 84.1672,236.335 84.5,135.5C 84.0254,132.918 84.6921,130.918 86.5,129.5 Z"/></g>
<g><path style="opacity:1" fill="#a6a6a6" d="M 84.5,135.5 C 84.1672,236.335 84.5006,337.001 85.5,437.5C 88.0667,436.525 90.7334,435.858 93.5,435.5C 93.2089,436.649 92.3756,437.316 91,437.5C 88.5379,438.159 86.0379,438.493 83.5,438.5C 83.1672,337.332 83.5006,236.332 84.5,135.5 Z"/></g>
<g><path style="opacity:1" fill="#a6a6a7" d="M 136.5,429.5 C 131.604,431.446 126.271,432.113 120.5,431.5C 120.5,431.167 120.5,430.833 120.5,430.5C 125.805,429.806 131.138,429.472 136.5,429.5 Z"/></g>
<g><path style="opacity:1" fill="#939393" d="M 120.5,430.5 C 120.5,430.833 120.5,431.167 120.5,431.5C 116.343,432.449 112.01,433.116 107.5,433.5C 108.5,432.833 109.5,432.167 110.5,431.5C 113.807,430.949 117.14,430.616 120.5,430.5 Z"/></g>
<g><path style="opacity:1" fill="#686868" d="M 110.5,431.5 C 109.5,432.167 108.5,432.833 107.5,433.5C 103.5,434.167 99.5,434.833 95.5,435.5C 95.6107,434.883 95.944,434.383 96.5,434C 101.144,432.971 105.81,432.138 110.5,431.5 Z"/></g>
<g><path style="opacity:0.898" fill="#484848" d="M 127.5,515.5 C 255.999,514.5 384.666,514.167 513.5,514.5C 513.5,542.5 513.5,570.5 513.5,598.5C 486.167,598.5 458.833,598.5 431.5,598.5C 458.328,597.502 485.328,597.169 512.5,597.5C 512.5,570.167 512.5,542.833 512.5,515.5C 384.167,515.5 255.833,515.5 127.5,515.5 Z"/></g>
<g><path style="opacity:1" fill="#7c7c7c" d="M 127.5,515.5 C 122.294,516.492 116.961,517.492 111.5,518.5C 112.681,516.933 114.347,516.099 116.5,516C 120.152,515.501 123.818,515.335 127.5,515.5 Z"/></g>
<g><path style="opacity:1" fill="#5f5f5f" d="M 106.5,520.5 C 105.07,521.537 103.403,522.204 101.5,522.5C 102.635,520.787 104.302,520.12 106.5,520.5 Z"/></g>
<g><path style="opacity:1" fill="#7b7b7b" d="M 101.5,522.5 C 100.035,523.737 98.3684,524.737 96.5,525.5C 97.2998,523.259 98.9664,522.259 101.5,522.5 Z"/></g>
<g><path style="opacity:1" fill="#565656" d="M 96.5,525.5 C 95.8333,526.833 94.8333,527.833 93.5,528.5C 93.5,526.5 94.5,525.5 96.5,525.5 Z"/></g>
<g><path style="opacity:1" fill="#787878" d="M 93.5,528.5 C 92.8333,529.833 91.8333,530.833 90.5,531.5C 90.5,530.5 90.5,529.5 90.5,528.5C 91.5,528.5 92.5,528.5 93.5,528.5 Z"/></g>
<g><path style="opacity:1" fill="#666666" d="M 90.5,531.5 C 90.573,533.027 89.9063,534.027 88.5,534.5C 88.2852,532.821 88.9519,531.821 90.5,531.5 Z"/></g>
<g><path style="opacity:1" fill="#8d8d8d" d="M -0.5,129.5 C -0.166667,129.5 0.166667,129.5 0.5,129.5C 0.193729,274.839 0.527063,420.172 1.5,565.5C 0.833333,562.5 0.166667,559.5 -0.5,556.5C -0.5,414.167 -0.5,271.833 -0.5,129.5 Z"/></g>
<g><path style="opacity:1" fill="#868788" d="M 86.5,539.5 C 85.201,547.22 85.5343,554.887 87.5,562.5C 86.0735,560.852 85.2401,558.852 85,556.5C 84.8333,553.667 84.6667,550.833 84.5,548C 84.5191,544.748 85.1858,541.915 86.5,539.5 Z"/></g>
<g><path style="opacity:1" fill="#8d8e8f" d="M 89.5,566.5 C 91.0075,568.181 92.0075,570.181 92.5,572.5C 90.0311,571.393 89.0311,569.393 89.5,566.5 Z"/></g>
<g><path style="opacity:1" fill="#676767" d="M 1.5,565.5 C 3.11805,568.171 3.78472,571.171 3.5,574.5C 1.73452,571.877 1.06786,568.877 1.5,565.5 Z"/></g>
<g><path style="opacity:1" fill="#696969" d="M 93.5,574.5 C 95.543,575.579 96.8763,577.246 97.5,579.5C 95.4689,578.461 94.1355,576.795 93.5,574.5 Z"/></g>
<g><path style="opacity:1" fill="#9b9b9b" d="M 332.5,581.5 C 332.5,581.833 332.5,582.167 332.5,582.5C 278.125,582.175 223.791,582.509 169.5,583.5C 169.5,583.167 169.5,582.833 169.5,582.5C 170.263,581.732 171.263,581.232 172.5,581C 226.002,580.168 279.335,580.335 332.5,581.5 Z"/></g>
<g><path style="opacity:1" fill="#6f6f6f" d="M 332.5,582.5 C 332.5,582.167 332.5,581.833 332.5,581.5C 334.698,581.12 336.365,581.787 337.5,583.5C 335.883,582.962 334.216,582.629 332.5,582.5 Z"/></g>
<g><path style="opacity:1" fill="#8eafd0" d="M 332.5,582.5 C 334.216,582.629 335.883,582.962 337.5,583.5C 338.492,583.328 339.158,583.662 339.5,584.5C 340.08,586.749 341.413,588.415 343.5,589.5C 343.171,592.228 343.837,594.562 345.5,596.5C 345.5,653.167 345.5,709.833 345.5,766.5C 344.069,767.78 343.402,769.447 343.5,771.5C 343.5,772.167 343.167,772.5 342.5,772.5C 340.658,772.723 338.825,773.057 337,773.5C 334.292,772.891 331.792,771.891 329.5,770.5C 327.596,770.262 326.262,769.262 325.5,767.5C 324.732,764.438 322.732,762.772 319.5,762.5C 319.027,761.094 318.027,760.427 316.5,760.5C 315.306,759.728 314.306,758.728 313.5,757.5C 312.415,755.413 310.749,754.08 308.5,753.5C 307.415,751.413 305.749,750.08 303.5,749.5C 302.002,746.483 299.669,744.483 296.5,743.5C 295.415,741.413 293.749,740.08 291.5,739.5C 290.089,737.086 288.089,735.419 285.5,734.5C 284.089,732.086 282.089,730.419 279.5,729.5C 279.027,728.094 278.027,727.427 276.5,727.5C 274.761,724.757 272.427,722.757 269.5,721.5C 268.089,719.086 266.089,717.419 263.5,716.5C 262.393,714.031 260.393,713.031 257.5,713.5C 253.452,713.395 249.452,713.728 245.5,714.5C 243.821,714.285 242.821,714.952 242.5,716.5C 240.858,717.803 239.191,719.136 237.5,720.5C 235.027,720.088 233.694,721.088 233.5,723.5C 233.167,724.5 232.5,725.167 231.5,725.5C 229.381,725.468 228.048,726.468 227.5,728.5C 227.167,729.5 226.5,730.167 225.5,730.5C 223.381,730.468 222.048,731.468 221.5,733.5C 219.716,735.367 217.716,737.034 215.5,738.5C 212.633,738.369 210.967,739.703 210.5,742.5C 208.368,742.554 207.035,743.554 206.5,745.5C 206.167,746.5 205.5,747.167 204.5,747.5C 202.596,747.738 201.262,748.738 200.5,750.5C 199.833,751.833 198.833,752.833 197.5,753.5C 195.596,753.738 194.262,754.738 193.5,756.5C 193.5,757.167 193.167,757.5 192.5,757.5C 190.821,757.285 189.821,757.952 189.5,759.5C 188.833,760.833 187.833,761.833 186.5,762.5C 184.821,762.285 183.821,762.952 183.5,764.5C 183.5,765.167 183.167,765.5 182.5,765.5C 181.325,765.281 180.325,765.614 179.5,766.5C 178.174,767.642 177.174,768.976 176.5,770.5C 175.205,771.488 173.872,772.488 172.5,773.5C 169.721,773.721 167.054,773.388 164.5,772.5C 163.878,771.373 163.045,770.373 162,769.5C 161.5,711.168 161.333,652.834 161.5,594.5C 162.597,589.73 165.263,586.064 169.5,583.5C 223.791,582.509 278.125,582.175 332.5,582.5 Z"/></g>
<g><path style="opacity:1" fill="#7d7d7d" d="M 4.5,579.5 C 5.11742,579.611 5.61742,579.944 6,580.5C 8.56174,589.282 11.3951,597.949 14.5,606.5C 9.80606,598.092 6.47272,589.092 4.5,579.5 Z"/></g>
<g><path style="opacity:1" fill="#757575" d="M 339.5,584.5 C 341.587,585.585 342.92,587.251 343.5,589.5C 341.413,588.415 340.08,586.749 339.5,584.5 Z"/></g>
<g><path style="opacity:1" fill="#8d8e8e" d="M 169.5,582.5 C 169.5,582.833 169.5,583.167 169.5,583.5C 165.263,586.064 162.597,589.73 161.5,594.5C 161.167,594.5 160.833,594.5 160.5,594.5C 161.203,588.794 164.203,584.794 169.5,582.5 Z"/></g>
<g><path style="opacity:1" fill="#868686" d="M 98.5,581.5 C 102.992,585.575 107.658,589.408 112.5,593C 115.076,596.063 117.409,599.229 119.5,602.5C 112.863,596.033 106.03,589.7 99,583.5C 98.5357,582.906 98.369,582.239 98.5,581.5 Z"/></g>
<g><path style="opacity:1" fill="#8d8e8e" d="M 343.5,589.5 C 344.924,591.515 345.59,593.848 345.5,596.5C 343.837,594.562 343.171,592.228 343.5,589.5 Z"/></g>
<g><path style="opacity:1" fill="#a7a8aa" d="M 160.5,594.5 C 160.833,594.5 161.167,594.5 161.5,594.5C 161.333,652.834 161.5,711.168 162,769.5C 163.045,770.373 163.878,771.373 164.5,772.5C 164.167,772.5 163.833,772.5 163.5,772.5C 161.827,771.657 160.66,770.324 160,768.5C 159.168,710.332 159.335,652.332 160.5,594.5 Z"/></g>
<g><path style="opacity:1" fill="#818181" d="M 429.5,598.5 C 425.597,600.938 421.264,602.605 416.5,603.5C 420.203,600.483 424.536,598.816 429.5,598.5 Z"/></g>
<g><path style="opacity:1" fill="#8f9091" d="M 119.5,602.5 C 121.592,605.088 122.925,608.088 123.5,611.5C 120.874,609.236 119.541,606.236 119.5,602.5 Z"/></g>
<g><path style="opacity:1" fill="#717171" d="M 416.5,603.5 C 412.239,607.422 407.906,611.422 403.5,615.5C 406.554,610.113 410.887,606.113 416.5,603.5 Z"/></g>
<g><path style="opacity:1" fill="#7e7e7e" d="M 15.5,608.5 C 18.4205,610.662 20.0871,613.662 20.5,617.5C 18.0743,614.987 16.4076,611.987 15.5,608.5 Z"/></g>
<g><path style="opacity:1" fill="#909090" d="M 403.5,615.5 C 403.264,618.621 401.931,620.954 399.5,622.5C 400.079,619.669 401.412,617.336 403.5,615.5 Z"/></g>
<g><path style="opacity:1" fill="#7e7e7e" d="M 21.5,619.5 C 24.3528,620.833 26.0195,623.166 26.5,626.5C 24.1099,624.733 22.4432,622.4 21.5,619.5 Z"/></g>
<g><path style="opacity:1" fill="#555555" d="M 124.5,614.5 C 125.236,617.695 125.903,621.029 126.5,624.5C 125.911,627.64 125.244,630.64 124.5,633.5C 124.5,627.167 124.5,620.833 124.5,614.5 Z"/></g>
<g><path style="opacity:1" fill="#808080" d="M 27.5,628.5 C 30.6519,629.779 32.6519,632.112 33.5,635.5C 30.7805,633.781 28.7805,631.447 27.5,628.5 Z"/></g>
<g><path style="opacity:1" fill="#7d7d7d" d="M 398.5,624.5 C 395.592,635.305 395.926,645.972 399.5,656.5C 398.069,656.119 397.236,655.119 397,653.5C 395.485,646.233 395.152,638.899 396,631.5C 396.156,628.809 396.989,626.476 398.5,624.5 Z"/></g>
<g><path style="opacity:1" fill="#787878" d="M 33.5,636.5 C 36.2639,636.999 37.9305,638.665 38.5,641.5C 36.5,640.167 34.8333,638.5 33.5,636.5 Z"/></g>
<g><path style="opacity:1" fill="#959595" d="M 38.5,641.5 C 41.4274,642.757 43.7607,644.757 45.5,647.5C 45.1667,647.5 44.8333,647.5 44.5,647.5C 42.1667,645.833 40.1667,643.833 38.5,641.5 Z"/></g>
<g><path style="opacity:1" fill="#7d7d7d" d="M 123.5,635.5 C 122.979,640.087 121.312,644.087 118.5,647.5C 119.648,643.213 121.315,639.213 123.5,635.5 Z"/></g>
<g><path style="opacity:1" fill="#8d8d8d" d="M 597.5,640.5 C 597.258,644.479 596.258,648.146 594.5,651.5C 594.167,651.5 593.833,651.5 593.5,651.5C 594.633,648.262 595.467,644.929 596,641.5C 596.383,640.944 596.883,640.611 597.5,640.5 Z"/></g>
<g><path style="opacity:1" fill="#7e7f7f" d="M 118.5,647.5 C 117.974,649.23 116.974,650.564 115.5,651.5C 115.088,649.027 116.088,647.694 118.5,647.5 Z"/></g>
<g><path style="opacity:1" fill="#686868" d="M 44.5,647.5 C 44.8333,647.5 45.1667,647.5 45.5,647.5C 47.9385,649.027 49.9385,651.027 51.5,653.5C 48.5726,652.243 46.2393,650.243 44.5,647.5 Z"/></g>
<g><path style="opacity:1" fill="#606060" d="M 115.5,651.5 C 114.833,654.167 113.167,655.833 110.5,656.5C 111.833,654.5 113.5,652.833 115.5,651.5 Z"/></g>
<g><path style="opacity:1" fill="#535353" d="M 593.5,651.5 C 593.833,651.5 594.167,651.5 594.5,651.5C 594.771,653.38 594.104,654.713 592.5,655.5C 592.833,654.167 593.167,652.833 593.5,651.5 Z"/></g>
<g><path style="opacity:1" fill="#6f6f6f" d="M 51.5,653.5 C 54.0632,653.731 55.7298,655.065 56.5,657.5C 54.2512,656.92 52.5846,655.587 51.5,653.5 Z"/></g>
<g><path style="opacity:1" fill="#6c6c6c" d="M 56.5,657.5 C 58.0269,657.427 59.0269,658.094 59.5,659.5C 57.9731,659.573 56.9731,658.906 56.5,657.5 Z"/></g>
<g><path style="opacity:0.757" fill="#5f5f5f" d="M 109.5,657.5 C 109.027,658.906 108.027,659.573 106.5,659.5C 106.821,657.952 107.821,657.285 109.5,657.5 Z"/></g>
<g><path style="opacity:1" fill="#808080" d="M 106.5,659.5 C 104.102,661.974 101.102,663.308 97.5,663.5C 100.088,661.375 103.088,660.042 106.5,659.5 Z"/></g>
<g><path style="opacity:1" fill="#7c7c7c" d="M 399.5,658.5 C 403.136,663.059 406.803,667.725 410.5,672.5C 405.421,669.041 401.754,664.374 399.5,658.5 Z"/></g>
<g><path style="opacity:1" fill="#696969" d="M 59.5,659.5 C 61.0269,659.427 62.0269,660.094 62.5,661.5C 60.9731,661.573 59.9731,660.906 59.5,659.5 Z"/></g>
<g><path style="opacity:1" fill="#757575" d="M 592.5,655.5 C 591.231,659.054 589.231,662.054 586.5,664.5C 586.351,663.448 586.517,662.448 587,661.5C 588.634,659.163 590.467,657.163 592.5,655.5 Z"/></g>
<g><path style="opacity:1" fill="#717172" d="M 67.5,663.5 C 77.0633,665.802 86.73,666.135 96.5,664.5C 87.3858,668.293 78.0524,668.459 68.5,665C 67.944,664.617 67.6107,664.117 67.5,663.5 Z"/></g>
<g><path style="opacity:1" fill="#797979" d="M 410.5,672.5 C 412.027,672.427 413.027,673.094 413.5,674.5C 411.973,674.573 410.973,673.906 410.5,672.5 Z"/></g>
<g><path style="opacity:1" fill="#757575" d="M 579.5,671.5 C 577.882,673.316 575.882,674.649 573.5,675.5C 574.733,673.204 576.733,671.87 579.5,671.5 Z"/></g>
<g><path style="opacity:1" fill="#545454" d="M 414.5,675.5 C 416.027,675.427 417.027,676.094 417.5,677.5C 415.973,677.573 414.973,676.906 414.5,675.5 Z"/></g>
<g><path style="opacity:1" fill="#8e8e8f" d="M 417.5,677.5 C 421.222,678.017 424.888,678.85 428.5,680C 429.056,680.383 429.389,680.883 429.5,681.5C 425.085,681.139 421.085,679.806 417.5,677.5 Z"/></g>
<g><path style="opacity:1" fill="#5f5f5f" d="M 572.5,675.5 C 571.7,677.741 570.034,678.741 567.5,678.5C 568.768,676.953 570.435,675.953 572.5,675.5 Z"/></g>
<g><path style="opacity:1" fill="#848484" d="M 567.5,678.5 C 564.505,680.243 561.171,681.243 557.5,681.5C 560.321,679.288 563.655,678.288 567.5,678.5 Z"/></g>
<g><path style="opacity:1" fill="#848484" d="M 257.5,713.5 C 260.393,713.031 262.393,714.031 263.5,716.5C 261.456,715.492 259.456,714.492 257.5,713.5 Z"/></g>
<g><path style="opacity:1" fill="#6f6f6f" d="M 245.5,714.5 C 244.71,715.401 243.71,716.068 242.5,716.5C 242.821,714.952 243.821,714.285 245.5,714.5 Z"/></g>
<g><path style="opacity:1" fill="#737373" d="M 263.5,716.5 C 266.089,717.419 268.089,719.086 269.5,721.5C 266.911,720.581 264.911,718.914 263.5,716.5 Z"/></g>
<g><path style="opacity:1" fill="#818181" d="M 237.5,720.5 C 236.738,722.262 235.404,723.262 233.5,723.5C 233.694,721.088 235.027,720.088 237.5,720.5 Z"/></g>
<g><path style="opacity:1" fill="#656565" d="M 269.5,721.5 C 272.427,722.757 274.761,724.757 276.5,727.5C 273.573,726.243 271.239,724.243 269.5,721.5 Z"/></g>
<g><path style="opacity:1" fill="#6f6f6f" d="M 231.5,725.5 C 230.738,727.262 229.404,728.262 227.5,728.5C 228.048,726.468 229.381,725.468 231.5,725.5 Z"/></g>
<g><path style="opacity:1" fill="#757575" d="M 276.5,727.5 C 278.027,727.427 279.027,728.094 279.5,729.5C 277.973,729.573 276.973,728.906 276.5,727.5 Z"/></g>
<g><path style="opacity:1" fill="#6c6c6c" d="M 225.5,730.5 C 224.738,732.262 223.404,733.262 221.5,733.5C 222.048,731.468 223.381,730.468 225.5,730.5 Z"/></g>
<g><path style="opacity:1" fill="#7d7d7d" d="M 279.5,729.5 C 282.089,730.419 284.089,732.086 285.5,734.5C 282.911,733.581 280.911,731.914 279.5,729.5 Z"/></g>
<g><path style="opacity:1" fill="#707070" d="M 285.5,734.5 C 288.089,735.419 290.089,737.086 291.5,739.5C 288.911,738.581 286.911,736.914 285.5,734.5 Z"/></g>
<g><path style="opacity:1" fill="#787878" d="M 291.5,739.5 C 293.749,740.08 295.415,741.413 296.5,743.5C 294.251,742.92 292.585,741.587 291.5,739.5 Z"/></g>
<g><path style="opacity:1" fill="#939393" d="M 215.5,738.5 C 213.858,739.803 212.191,741.136 210.5,742.5C 210.967,739.703 212.633,738.369 215.5,738.5 Z"/></g>
<g><path style="opacity:1" fill="#7b7b7b" d="M 210.5,742.5 C 209.738,744.262 208.404,745.262 206.5,745.5C 207.035,743.554 208.368,742.554 210.5,742.5 Z"/></g>
<g><path style="opacity:1" fill="#6e6e6f" d="M 296.5,743.5 C 299.669,744.483 302.002,746.483 303.5,749.5C 300.573,748.243 298.239,746.243 296.5,743.5 Z"/></g>
<g><path style="opacity:1" fill="#585858" d="M 204.5,747.5 C 203.738,749.262 202.404,750.262 200.5,750.5C 201.262,748.738 202.596,747.738 204.5,747.5 Z"/></g>
<g><path style="opacity:1" fill="#6b6b6b" d="M 303.5,749.5 C 305.749,750.08 307.415,751.413 308.5,753.5C 306.251,752.92 304.585,751.587 303.5,749.5 Z"/></g>
<g><path style="opacity:1" fill="#747474" d="M 308.5,753.5 C 310.749,754.08 312.415,755.413 313.5,757.5C 311.251,756.92 309.585,755.587 308.5,753.5 Z"/></g>
<g><path style="opacity:0.208" fill="#4c4c4c" d="M 197.5,753.5 C 196.738,755.262 195.404,756.262 193.5,756.5C 194.262,754.738 195.596,753.738 197.5,753.5 Z"/></g>
<g><path style="opacity:1" fill="#848484" d="M 192.5,757.5 C 191.71,758.401 190.71,759.068 189.5,759.5C 189.821,757.952 190.821,757.285 192.5,757.5 Z"/></g>
<g><path style="opacity:1" fill="#606060" d="M 316.5,760.5 C 318.027,760.427 319.027,761.094 319.5,762.5C 317.973,762.573 316.973,761.906 316.5,760.5 Z"/></g>
<g><path style="opacity:1" fill="#747474" d="M 186.5,762.5 C 186.027,763.906 185.027,764.573 183.5,764.5C 183.821,762.952 184.821,762.285 186.5,762.5 Z"/></g>
<g><path style="opacity:1" fill="#909295" d="M 319.5,762.5 C 322.732,762.772 324.732,764.438 325.5,767.5C 323.519,765.856 321.519,764.19 319.5,762.5 Z"/></g>
<g><path style="opacity:1" fill="#6f6f6f" d="M 182.5,765.5 C 181.109,767.89 179.109,769.557 176.5,770.5C 177.174,768.976 178.174,767.642 179.5,766.5C 180.325,765.614 181.325,765.281 182.5,765.5 Z"/></g>
<g><path style="opacity:1" fill="#898989" d="M 345.5,766.5 C 345.598,768.553 344.931,770.22 343.5,771.5C 343.402,769.447 344.069,767.78 345.5,766.5 Z"/></g>
<g><path style="opacity:1" fill="#686868" d="M 163.5,772.5 C 163.833,772.5 164.167,772.5 164.5,772.5C 167.054,773.388 169.721,773.721 172.5,773.5C 172.5,773.833 172.5,774.167 172.5,774.5C 169.833,774.5 167.167,774.5 164.5,774.5C 164.167,773.833 163.833,773.167 163.5,772.5 Z"/></g>
<g><path style="opacity:1" fill="#717171" d="M 329.5,770.5 C 331.792,771.891 334.292,772.891 337,773.5C 338.825,773.057 340.658,772.723 342.5,772.5C 341.833,773.167 341.167,773.833 340.5,774.5C 337.833,774.5 335.167,774.5 332.5,774.5C 331.5,773.167 330.5,771.833 329.5,770.5 Z"/></g>
</svg>
