<?xml version="1.0" encoding="UTF-8" standalone="no"?>
<!-- Created with Inkscape (http://www.inkscape.org/) -->

<svg
   width="152.39011mm"
   height="118.53332mm"
   viewBox="0 0 152.39011 118.53332"
   version="1.1"
   id="svg1"
   xml:space="preserve"
   inkscape:export-filename="icon-light-github.svg"
   inkscape:export-xdpi="96"
   inkscape:export-ydpi="96"
   xmlns:inkscape="http://www.inkscape.org/namespaces/inkscape"
   xmlns:sodipodi="http://sodipodi.sourceforge.net/DTD/sodipodi-0.dtd"
   xmlns="http://www.w3.org/2000/svg"
   xmlns:svg="http://www.w3.org/2000/svg"><sodipodi:namedview
     id="namedview1"
     pagecolor="#505050"
     bordercolor="#ffffff"
     borderopacity="1"
     inkscape:showpageshadow="0"
     inkscape:pageopacity="0"
     inkscape:pagecheckerboard="1"
     inkscape:deskcolor="#505050"
     inkscape:document-units="mm" /><defs
     id="defs1" /><g
     inkscape:label="Layer 1"
     inkscape:groupmode="layer"
     id="layer1"
     transform="translate(90.508166,-189.73481)"><path
       fill="#8cafd2"
       d="m -67.039618,240.48189 -23.468542,40.21667 v -74.03042 c 0,-9.33979 7.593542,-16.93333 16.933333,-16.93333 h 31.088542 c 4.497917,0 8.810625,1.7727 11.985625,4.9477 l 7.011458,7.01146 c 3.175,3.175 7.487709,4.94771 11.985625,4.94771 H 19.55851 c 9.33979,0 16.93333,7.59354 16.93333,16.93333 v 8.46667 h -88.9 c -6.0325,0 -11.58875,3.20146 -14.631458,8.41375 z m 7.3025,4.25979 c 1.534583,-2.61937 4.312708,-4.20687 7.328958,-4.20687 H 53.42517 c 3.04271,0 5.82084,1.61395 7.32896,4.25979 1.50813,2.64583 1.50813,5.87375 -0.0265,8.49312 l -29.63329,50.8 c -1.50813,2.59292 -4.28625,4.18042 -7.3025,4.18042 H -82.041493 c -3.042709,0 -5.820834,-1.61396 -7.328959,-4.25979 -1.508125,-2.64584 -1.508125,-5.87375 0.02646,-8.49313 l 29.633334,-50.8 z"
       id="path1"
       style="fill:#2848a9;fill-opacity:1;stroke-width:0.264583" /></g></svg>
