<?xml version="1.0" encoding="UTF-8"?>
<!DOCTYPE svg PUBLIC "-//W3C//DTD SVG 1.1//EN" "http://www.w3.org/Graphics/SVG/1.1/DTD/svg11.dtd">
<svg xmlns="http://www.w3.org/2000/svg" version="1.1" width="512px" height="360px" style="shape-rendering:geometricPrecision; text-rendering:geometricPrecision; image-rendering:optimizeQuality; fill-rule:evenodd; clip-rule:evenodd" xmlns:xlink="http://www.w3.org/1999/xlink">
<g><path style="opacity:1" fill="#8cafd1" d="M 35.5,-0.5 C 182.167,-0.5 328.833,-0.5 475.5,-0.5C 478.812,0.610222 482.145,1.94356 485.5,3.5C 412.708,77.792 339.375,151.625 265.5,225C 258.821,228.33 252.155,228.33 245.5,225C 171.625,151.625 98.2918,77.792 25.5,3.5C 28.855,1.94356 32.1883,0.610222 35.5,-0.5 Z"/></g>
<g><path style="opacity:1" fill="#8cafd1" d="M -0.5,323.5 C -0.5,227.5 -0.5,131.5 -0.5,35.5C 0.607612,32.1979 1.94095,28.8646 3.5,25.5C 4.00161,24.479 4.66828,24.3123 5.5,25C 57.0137,76.347 108.347,127.847 159.5,179.5C 108.347,231.153 57.0137,282.653 5.5,334C 4.66828,334.688 4.00161,334.521 3.5,333.5C 1.94095,330.135 0.607612,326.802 -0.5,323.5 Z"/></g>
<g><path style="opacity:1" fill="#8cafd1" d="M 511.5,35.5 C 511.5,131.5 511.5,227.5 511.5,323.5C 510.392,326.802 509.059,330.135 507.5,333.5C 506.998,334.521 506.332,334.688 505.5,334C 454.167,282.667 402.833,231.333 351.5,180C 402.472,128.028 453.806,76.3608 505.5,25C 506.332,24.3123 506.998,24.479 507.5,25.5C 509.059,28.8646 510.392,32.1979 511.5,35.5 Z"/></g>
<g><path style="opacity:1" fill="#8cafd1" d="M 475.5,359.5 C 328.833,359.5 182.167,359.5 35.5,359.5C 32.8136,358.436 29.9802,357.436 27,356.5C 25.7425,356.15 25.4092,355.483 26,354.5C 76.6527,302.681 127.819,251.347 179.5,200.5C 195.681,216.515 212.015,232.348 228.5,248C 246.492,259.332 264.492,259.332 282.5,248C 298.805,232.696 314.805,217.029 330.5,201C 331.167,200.333 331.833,200.333 332.5,201C 383.694,251.861 434.528,303.028 485,354.5C 485.591,355.483 485.257,356.15 484,356.5C 481.02,357.436 478.186,358.436 475.5,359.5 Z"/></g>
</svg>
