<?xml version="1.0" encoding="UTF-8"?>
<!DOCTYPE svg PUBLIC "-//W3C//DTD SVG 1.1//EN" "http://www.w3.org/Graphics/SVG/1.1/DTD/svg11.dtd">
<svg xmlns="http://www.w3.org/2000/svg" version="1.1" width="512px" height="512px" style="shape-rendering:geometricPrecision; text-rendering:geometricPrecision; image-rendering:optimizeQuality; fill-rule:evenodd; clip-rule:evenodd" xmlns:xlink="http://www.w3.org/1999/xlink">
<g><path style="opacity:1" fill="#8baed1" d="M 232.5,-0.5 C 247.833,-0.5 263.167,-0.5 278.5,-0.5C 378.27,12.4476 449.437,64.4476 492,155.5C 502.135,180.377 508.635,206.043 511.5,232.5C 511.5,247.833 511.5,263.167 511.5,278.5C 500.612,368.143 456.279,435.643 378.5,481C 347.029,497.695 313.696,507.861 278.5,511.5C 263.5,511.5 248.5,511.5 233.5,511.5C 133.231,498.958 61.7312,446.958 19,355.5C 8.86366,330.62 2.36366,304.953 -0.5,278.5C -0.5,263.167 -0.5,247.833 -0.5,232.5C 12.4494,132.728 64.4494,61.5615 155.5,19C 180.377,8.86452 206.043,2.36452 232.5,-0.5 Z M 244.5,31.5 C 332.947,30.9597 400.781,67.6264 448,141.5C 479.428,197.1 486.761,255.767 470,317.5C 447.226,389.274 400.726,438.774 330.5,466C 326.259,467.457 321.926,467.791 317.5,467C 315,465.833 313.167,464 312,461.5C 311.906,434.477 311.239,407.477 310,380.5C 308.404,370.517 304.237,361.851 297.5,354.5C 372.193,345.478 405.693,303.478 398,228.5C 394.983,211.303 387.816,196.136 376.5,183C 382.321,163.589 381.488,144.422 374,125.5C 370.817,123.477 367.317,122.977 363.5,124C 356.963,124.884 350.63,126.551 344.5,129C 333.178,134.326 322.178,140.16 311.5,146.5C 274.326,135.849 237.16,135.849 200,146.5C 185.601,137.052 170.101,129.885 153.5,125C 148.545,123.782 143.545,123.449 138.5,124C 134.41,131.607 131.91,139.774 131,148.5C 129.607,160.315 130.774,171.815 134.5,183C 115.079,206.387 107.913,233.221 113,263.5C 118.064,310.899 143.897,339.733 190.5,350C 198.173,351.501 205.84,353.001 213.5,354.5C 206.287,363.094 201.62,372.928 199.5,384C 169.495,396.002 146.995,387.835 132,359.5C 122.529,347.013 110.029,341.513 94.5,343C 90.8101,343.69 89.6434,345.857 91,349.5C 98.8598,355.456 106.193,362.123 113,369.5C 118.857,379.214 124.191,389.214 129,399.5C 138.508,411.677 151.008,418.844 166.5,421C 177.571,421.83 188.571,421.33 199.5,419.5C 199.667,433.504 199.5,447.504 199,461.5C 195.268,467.046 190.101,468.879 183.5,467C 111.762,440.262 64.2616,390.428 41,317.5C 18.896,227.386 41.396,150.553 108.5,87C 147.762,53.743 193.095,35.243 244.5,31.5 Z"/></g>
</svg>
