<?xml version="1.0" encoding="UTF-8" standalone="no"?>
<!-- Created with Inkscape (http://www.inkscape.org/) -->

<svg
   version="1.1"
   id="svg1"
   width="542.65875"
   height="356"
   viewBox="0 0 542.65875 356"
   sodipodi:docname="ko-fi.png"
   inkscape:export-filename="../Projects/Maldus512/website/static/icons/icon-dark-ko-fi.svg"
   inkscape:export-xdpi="96"
   inkscape:export-ydpi="96"
   xmlns:inkscape="http://www.inkscape.org/namespaces/inkscape"
   xmlns:sodipodi="http://sodipodi.sourceforge.net/DTD/sodipodi-0.dtd"
   xmlns="http://www.w3.org/2000/svg"
   xmlns:svg="http://www.w3.org/2000/svg">
  <defs
     id="defs1" />
  <sodipodi:namedview
     id="namedview1"
     pagecolor="#505050"
     bordercolor="#ffffff"
     borderopacity="1"
     inkscape:showpageshadow="0"
     inkscape:pageopacity="0"
     inkscape:pagecheckerboard="1"
     inkscape:deskcolor="#505050" />
  <g
     inkscape:groupmode="layer"
     inkscape:label="Image"
     id="g1"
     transform="translate(-161.51395,-159.67035)">
    <path
       style="fill:#2848a9;fill-opacity:1"
       d="m 220.84625,514.33702 c 0,-1.22876 -0.44444,-1.33334 -5.66666,-1.33334 -5.22223,0 -5.66667,-0.10457 -5.66667,-1.33333 0,-1.02415 -0.44445,-1.33333 -1.91667,-1.33333 -3.58779,0 -5.95739,-0.77975 -6.2952,-2.07153 -0.19119,-0.7311 -0.91701,-1.26181 -1.72572,-1.26181 -0.9513,0 -1.39574,-0.42457 -1.39574,-1.33333 0,-1.11111 -0.44445,-1.33333 -2.66667,-1.33333 -2.22222,0 -2.66667,-0.22223 -2.66667,-1.33334 0,-0.97777 -0.44444,-1.33333 -1.66666,-1.33333 -1.22223,0 -1.66667,-0.35556 -1.66667,-1.33333 0,-0.88889 -0.44444,-1.33334 -1.33333,-1.33334 -0.88889,0 -1.33334,-0.44444 -1.33334,-1.33333 0,-0.88889 -0.44444,-1.33333 -1.33333,-1.33333 -0.97778,0 -1.33333,-0.44445 -1.33333,-1.66667 0,-1.22222 -0.35556,-1.66667 -1.33334,-1.66667 -0.88889,0 -1.33333,-0.44444 -1.33333,-1.33333 0,-0.90876 -0.44444,-1.33333 -1.39575,-1.33333 -0.81252,0 -1.5347,-0.53139 -1.7283,-1.2717 -0.18291,-0.69943 -0.90482,-1.42135 -1.60425,-1.60425 -0.98989,-0.25887 -1.2717,-0.93732 -1.2717,-3.06164 0,-2.28464 -0.21714,-2.72908 -1.33333,-2.72908 -0.88889,0 -1.33334,-0.44444 -1.33334,-1.33333 0,-0.88889 -0.44444,-1.33334 -1.33333,-1.33334 -1.06996,0 -1.33333,-0.44444 -1.33333,-2.25 0,-3.51728 -0.75309,-6.41666 -1.66667,-6.41666 -0.91358,0 -1.66667,-2.89939 -1.66667,-6.41667 0,-1.45062 -0.32154,-2.25 -0.90503,-2.25 -1.4942,0 -1.76163,-6.18839 -1.76163,-40.76446 0,-26.75269 -0.15929,-32.56887 -0.89198,-32.56887 -1.23185,0 -1.77235,-31.40595 -1.77366,-103.05821 -0.001,-68.22258 0.4887,-94.27513 1.77296,-94.27513 0.63507,0 0.89268,-1.03405 0.89268,-3.58333 0,-4.79216 0.64553,-7.75 1.6914,-7.75 0.47795,0 1.05276,-1.15236 1.29756,-2.60135 0.3011,-1.78219 0.84439,-2.70723 1.72527,-2.93759 0.75342,-0.19702 1.28577,-0.91411 1.28577,-1.73198 0,-0.9513 0.42457,-1.39575 1.33333,-1.39575 0.88889,0 1.33333,-0.44444 1.33333,-1.33333 0,-0.90876 0.44445,-1.33333 1.39575,-1.33333 0.83673,0 1.53589,-0.53593 1.74566,-1.33809 0.24674,-0.94353 1.11294,-1.4601 2.93759,-1.75187 1.937,-0.30974 2.58767,-0.72763 2.58767,-1.66192 0,-1.03481 0.51271,-1.24812 3,-1.24812 2.55556,0 3,-0.19753 3,-1.33334 0,-1.33031 0.44444,-1.33333 196.33333,-1.33333 195.88888,0 196.33333,0.003 196.33333,1.33333 0,1.26223 0.44444,1.33334 8.33333,1.33334 7.88889,0 8.33333,0.0711 8.33333,1.33333 0,1.14517 0.44689,1.33437 3.16667,1.34067 4.67557,0.0108 8.16667,0.72183 8.16667,1.66322 0,0.87639 2.87702,1.66278 6.08333,1.66278 1.47222,0 1.91667,0.30918 1.91667,1.33333 0,1.1358 0.44444,1.33333 3,1.33333 2.55555,0 2.99999,0.19753 2.99999,1.33334 0,1.1358 0.44445,1.33333 3,1.33333 2.55556,0 3,0.19753 3,1.33333 0,1.08598 0.44445,1.33334 2.39575,1.33334 1.80554,0 2.47858,0.31676 2.73198,1.28577 0.23036,0.88088 1.15541,1.42416 2.93759,1.72526 1.96381,0.33179 2.60135,0.75191 2.60135,1.71423 0,1.04275 0.48531,1.27474 2.66667,1.27474 2.22222,0 2.66666,0.22222 2.66666,1.33333 0,0.97778 0.44445,1.33333 1.66667,1.33333 1.22222,0 1.66667,0.35556 1.66667,1.33334 0,0.90876 0.44444,1.33333 1.39574,1.33333 0.81787,0 1.53496,0.53235 1.73199,1.28577 0.23035,0.88088 1.1554,1.42417 2.93758,1.72527 1.96382,0.33178 2.60135,0.7519 2.60135,1.71423 0,0.83029 0.46488,1.27473 1.33334,1.27473 0.88889,0 1.33333,0.44444 1.33333,1.33333 0,0.88889 0.44445,1.33334 1.33333,1.33334 0.88889,0 1.33334,0.44444 1.33334,1.33333 0,0.97778 0.44444,1.33333 1.66666,1.33333 1.18782,0 1.66667,0.36074 1.66667,1.25558 0,0.69491 0.59539,1.41128 1.33333,1.60426 0.79774,0.20861 1.33334,0.90934 1.33334,1.74442 0,0.9513 0.42457,1.39574 1.33333,1.39574 0.88889,0 1.33333,0.44445 1.33333,1.33334 0,0.88889 0.44445,1.33333 1.33334,1.33333 0.88889,0 1.33333,0.44444 1.33333,1.33333 0,0.88889 0.44444,1.33334 1.33333,1.33334 0.90877,0 1.33334,0.44444 1.33334,1.39574 0,0.83673 0.53592,1.5359 1.33808,1.74567 0.94353,0.24674 1.4601,1.11293 1.75188,2.93758 0.30973,1.937 0.72762,2.58767 1.66191,2.58767 0.80368,0 1.24813,0.47479 1.24813,1.33334 0,0.88889 0.44444,1.33333 1.33333,1.33333 1.11619,0 1.33333,0.44444 1.33333,2.72908 0,2.13476 0.28001,2.8023 1.28577,3.06532 0.88088,0.23035 1.42417,1.1554 1.72527,2.93758 0.33178,1.96382 0.75191,2.60135 1.71423,2.60135 1.03636,0 1.27473,0.48412 1.27473,2.58892 0,2.02824 0.28876,2.66442 1.33334,2.93758 1.05941,0.27704 1.33333,0.90935 1.33333,3.07776 0,2.28463 0.21714,2.72908 1.33333,2.72908 1.19658,0 1.33334,0.44444 1.33334,4.33333 0,3.82101 0.15056,4.33333 1.27348,4.33333 1.11664,0 1.33163,0.69795 1.74552,5.66667 0.31727,3.80878 0.7429,5.66667 1.29821,5.66667 0.92385,0 1.68279,5.60646 1.68279,12.43112 0,3.14059 0.23596,4.23554 0.91277,4.23554 1.40862,0 1.73856,3.69556 1.74656,19.56242 0.007,14.0049 -0.0437,14.57576 -1.326,14.91108 -1.2053,0.3152 -1.33333,0.90935 -1.33333,6.18759 0,7.02788 -0.52081,10.00558 -1.75,10.00558 -0.58824,0 -0.9193,0.77628 -0.92401,2.16667 -0.0128,3.76988 -0.80373,7.16666 -1.6688,7.16666 -1.00485,0 -1.63573,2.10537 -1.64809,5.5 -0.007,2.05252 -0.24776,2.5 -1.34244,2.5 -1.18518,0 -1.33333,0.44445 -1.33333,4 0,3.47531 -0.16497,4 -1.25764,4 -0.97944,0 -1.35715,0.66362 -1.70751,3 -0.35529,2.36926 -0.72162,3 -1.74237,3 -0.9342,0 -1.29248,0.46201 -1.29248,1.66667 0,1.22222 -0.35556,1.66667 -1.33333,1.66667 -1.11111,0 -1.33334,0.44444 -1.33334,2.66666 0,2.22223 -0.22222,2.66667 -1.33333,2.66667 -0.88889,0 -1.33333,0.44444 -1.33333,1.33333 0,0.85855 -0.44445,1.33334 -1.24813,1.33334 -0.93429,0 -1.35218,0.65067 -1.66191,2.58767 -0.29178,1.82465 -0.80835,2.69084 -1.75188,2.93758 -0.80216,0.20977 -1.33808,0.90894 -1.33808,1.74567 0,0.9513 -0.42457,1.39574 -1.33334,1.39574 -0.88889,0 -1.33333,0.44445 -1.33333,1.33334 0,0.88889 -0.44444,1.33333 -1.33333,1.33333 -0.88889,0 -1.33334,0.44444 -1.33334,1.33333 0,0.88889 -0.44444,1.33334 -1.33333,1.33334 -0.97778,0 -1.33333,0.44444 -1.33333,1.66666 0,1.22223 -0.35556,1.66667 -1.33334,1.66667 -0.88889,0 -1.33333,0.44444 -1.33333,1.33333 0,0.97778 -0.44444,1.33334 -1.66667,1.33334 -1.22222,0 -1.66666,0.35555 -1.66666,1.33333 0,0.88889 -0.44445,1.33333 -1.33334,1.33333 -0.88888,0 -1.33333,0.44445 -1.33333,1.33334 0,0.88889 -0.44444,1.33333 -1.33333,1.33333 -0.87288,0 -1.33334,0.44444 -1.33334,1.28697 0,0.82706 -0.53602,1.36309 -1.5,1.5 -0.96397,0.1369 -1.57612,0.74906 -1.71303,1.71303 -0.17966,1.265 -0.62355,1.5 -2.83333,1.5 -2.17586,0 -2.6203,0.22615 -2.6203,1.33333 0,0.88889 -0.44445,1.33334 -1.33334,1.33334 -0.88888,0 -1.33333,0.44444 -1.33333,1.33333 0,1.11111 -0.44444,1.33333 -2.66667,1.33333 -2.16872,0 -2.66666,0.23484 -2.66666,1.25764 0,0.97944 -0.66362,1.35715 -3,1.70752 -2.36925,0.35529 -3,0.72162 -3,1.74236 0,1.06345 -0.47254,1.29248 -2.66667,1.29248 -2.22222,0 -2.66667,0.22223 -2.66667,1.33334 0,1.1358 -0.44444,1.33333 -3,1.33333 -2.55555,0 -3,0.19753 -3,1.33333 0,1.13581 -0.44444,1.33334 -2.99999,1.33334 -2.55556,0 -3,0.19753 -3,1.33333 0,1.02415 -0.44445,1.33333 -1.91667,1.33333 -3.21119,0 -6.08333,0.78689 -6.08333,1.66667 0,1.02292 -2.99342,1.66667 -7.75,1.66667 -3.13889,0 -3.58334,0.16537 -3.58334,1.33333 0,1.22876 -0.44444,1.33333 -5.66666,1.33333 -5.22223,0 -5.66667,0.10458 -5.66667,1.33334 0,1.2836 -0.44445,1.33333 -11.91667,1.33333 -6.55416,0 -12.85416,0.1875 -14,0.41667 l -2.08333,0.41666 -0.007,7.08334 c -0.009,8.35844 -0.52171,12.08333 -1.66356,12.08333 -0.99526,0 -1.66277,2.97737 -1.66277,7.41667 0,2.80555 -0.18234,3.25 -1.33334,3.25 -1.1358,0 -1.33333,0.44444 -1.33333,3 0,2.55555 -0.19753,3 -1.33333,3 -1.13581,0 -1.33334,0.44444 -1.33334,3 0,2.50958 -0.20838,3 -1.27473,3 -0.96232,0 -1.38245,0.63753 -1.71423,2.60135 -0.3011,1.78218 -0.84439,2.70723 -1.72527,2.93758 -0.75342,0.19703 -1.28577,0.91412 -1.28577,1.73199 0,0.9513 -0.42457,1.39574 -1.33333,1.39574 -1.11111,0 -1.33333,0.44445 -1.33333,2.66667 0,2.22222 -0.22223,2.66667 -1.33334,2.66667 -0.88889,0 -1.33333,0.44444 -1.33333,1.33333 0,0.97778 -0.44444,1.33333 -1.66667,1.33333 -1.22222,0 -1.66666,0.35556 -1.66666,1.33334 0,0.88889 -0.44445,1.33333 -1.33334,1.33333 -0.86845,0 -1.33333,0.44444 -1.33333,1.27473 0,0.96766 -0.64239,1.38327 -2.66667,1.72527 -2.02428,0.342 -2.66666,0.75761 -2.66666,1.72527 0,0.83029 -0.46488,1.27473 -1.33334,1.27473 -0.88888,0 -1.33333,0.44444 -1.33333,1.33333 0,1.13581 -0.44444,1.33334 -3,1.33334 -2.50959,0 -3,0.20838 -3,1.27473 0,0.96232 -0.63754,1.38245 -2.60135,1.71423 -1.78218,0.3011 -2.70723,0.84439 -2.93759,1.72527 -0.26301,1.00576 -0.93055,1.28577 -3.06531,1.28577 -2.28464,0 -2.72908,0.21714 -2.72908,1.33333 0,1.3032 -0.44445,1.33333 -19.66667,1.33333 -19.22222,0 -19.66666,0.0301 -19.66666,1.33334 0,1.32851 -0.44445,1.33333 -123,1.33333 -122.55555,0 -123,-0.005 -123,-1.33333 z m 237.5,-24.44153 c 13.12759,-0.34899 16.5,-0.62121 16.5,-1.33189 0,-0.7085 2.17169,-0.89445 10.5,-0.89904 13.59226,-0.008 17.2871,-0.44143 17.71574,-2.08054 0.25158,-0.96204 0.94974,-1.247 3.05517,-1.247 2.28464,0 2.72908,-0.21714 2.72908,-1.33334 0,-0.97777 0.44445,-1.33333 1.66667,-1.33333 1.22222,0 1.66667,-0.35556 1.66667,-1.33333 0,-0.88889 0.44444,-1.33334 1.33333,-1.33334 0.88889,0 1.33333,-0.44444 1.33333,-1.33333 0,-0.88889 0.44445,-1.33333 1.33334,-1.33333 0.88889,0 1.33333,-0.44445 1.33333,-1.33334 0,-0.88889 0.44445,-1.33333 1.33333,-1.33333 0.97778,0 1.33334,-0.44444 1.33334,-1.66667 0,-1.19668 0.35946,-1.66666 1.27473,-1.66666 0.96766,0 1.38327,-0.64239 1.72527,-2.66667 0.342,-2.02428 0.7576,-2.66667 1.72526,-2.66667 1.04275,0 1.27474,-0.4853 1.27474,-2.66666 0,-2.22223 0.22222,-2.66667 1.33333,-2.66667 1.15556,0 1.33333,-0.44444 1.33333,-3.33333 0,-2.88889 0.17778,-3.33334 1.33334,-3.33334 1.25983,0 1.33333,-0.44444 1.33333,-8.06241 0,-7.50174 0.0927,-8.08666 1.33333,-8.41109 1.24876,-0.32655 1.33334,-0.90934 1.33334,-9.18758 0,-10.47581 0.35952,-12.76975 2.07152,-13.21745 0.7311,-0.19119 1.26181,-0.91701 1.26181,-1.72572 0,-1.20977 0.39973,-1.39575 3,-1.39575 2.55556,0 3,-0.19753 3,-1.33333 0,-1.30278 0.44444,-1.33333 19.39575,-1.33333 18.83507,0 19.40582,-0.0385 19.74442,-1.33334 0.30528,-1.16741 0.90934,-1.33333 4.85425,-1.33333 5.61834,0 8.67225,-0.58554 8.67225,-1.66277 0,-0.82095 3.36352,-1.64905 6.75557,-1.66323 1.19121,-0.005 1.86767,-0.43596 2.10426,-1.34067 0.27704,-1.05941 0.90934,-1.33333 3.07775,-1.33333 2.28464,0 2.72908,-0.21714 2.72908,-1.33333 0,-1.18519 0.44445,-1.33334 4,-1.33334 3.55556,0 4,-0.14814 4,-1.33333 0,-0.97778 0.44445,-1.33333 1.66667,-1.33333 1.19668,0 1.66666,-0.35947 1.66666,-1.27474 0,-0.96232 0.63754,-1.38244 2.60136,-1.71423 1.78218,-0.3011 2.70723,-0.84438 2.93758,-1.72526 0.26302,-1.00577 0.93056,-1.28577 3.06532,-1.28577 2.28463,0 2.72908,-0.21714 2.72908,-1.33334 0,-0.88889 0.44444,-1.33333 1.33333,-1.33333 0.88889,0 1.33333,-0.44444 1.33333,-1.33333 0,-0.90877 0.44445,-1.33334 1.39575,-1.33334 0.82927,0 1.53552,-0.53447 1.74013,-1.3169 0.22166,-0.84766 1.12777,-1.46387 2.54289,-1.72935 1.38139,-0.25915 2.32201,-0.88471 2.53079,-1.6831 0.19334,-0.73933 0.91591,-1.27065 1.72803,-1.27065 0.9513,0 1.39575,-0.42457 1.39575,-1.33333 0,-0.88889 0.44444,-1.33333 1.33333,-1.33333 0.88889,0 1.33333,-0.44445 1.33333,-1.33334 0,-0.85854 0.44445,-1.33333 1.24813,-1.33333 0.93429,0 1.35218,-0.65067 1.66191,-2.58767 0.29178,-1.82465 0.80835,-2.69085 1.75188,-2.93759 0.80216,-0.20977 1.33808,-0.90893 1.33808,-1.74566 0,-0.9513 0.42457,-1.39575 1.33334,-1.39575 0.88889,0 1.33333,-0.44444 1.33333,-1.33333 0,-0.88889 0.44445,-1.33333 1.33333,-1.33333 1.11112,0 1.33334,-0.44445 1.33334,-2.66667 0,-2.22222 0.22222,-2.66667 1.33333,-2.66667 0.97778,0 1.33333,-0.44444 1.33333,-1.66666 0,-1.20467 0.35828,-1.66667 1.29249,-1.66667 1.02074,0 1.38707,-0.63075 1.74236,-3 0.35036,-2.33638 0.72808,-3 1.70752,-3 1.09266,0 1.25763,-0.5247 1.25763,-4 0,-3.55556 0.14815,-4 1.33334,-4 1.18518,0 1.33333,-0.44444 1.33333,-4 0,-3.55556 0.14815,-4 1.33333,-4 1.18204,0 1.33334,-0.44444 1.33334,-3.91667 0,-5.18894 0.62662,-8.08333 1.75,-8.08333 0.75514,0 0.91666,-3.17172 0.91666,-18 0,-14.79104 -0.16272,-18 -0.91277,-18 -1.13178,0 -1.7368,-3.40636 -1.74656,-9.83333 -0.007,-4.38645 -0.13061,-4.83334 -1.34067,-4.83334 -1.22875,0 -1.33333,-0.44444 -1.33333,-5.66666 0,-5.22223 -0.10457,-5.66667 -1.33333,-5.66667 -1.13581,0 -1.33334,-0.44444 -1.33334,-3 0,-2.55556 -0.19753,-3 -1.33333,-3 -1.11111,0 -1.33333,-0.44444 -1.33333,-2.66667 0,-2.18136 -0.23199,-2.66666 -1.27474,-2.66666 -0.96232,0 -1.38244,-0.63754 -1.71423,-2.60135 -0.3011,-1.78219 -0.84438,-2.70724 -1.72526,-2.93759 -0.96901,-0.2534 -1.28577,-0.92645 -1.28577,-2.73198 0,-1.95131 -0.24735,-2.39575 -1.33334,-2.39575 -0.97777,0 -1.33333,-0.44444 -1.33333,-1.66667 0,-1.22222 -0.35555,-1.66666 -1.33333,-1.66666 -0.88889,0 -1.33334,-0.44445 -1.33334,-1.33334 0,-0.86845 -0.44444,-1.33333 -1.27473,-1.33333 -0.96766,0 -1.38327,-0.64239 -1.72527,-2.66667 -0.342,-2.02428 -0.7576,-2.66666 -1.72526,-2.66666 -0.91527,0 -1.27474,-0.46999 -1.27474,-1.66667 0,-1.22222 -0.35555,-1.66667 -1.33333,-1.66667 -0.88889,0 -1.33333,-0.44444 -1.33333,-1.33333 0,-0.97778 -0.44445,-1.33333 -1.66667,-1.33333 -1.18949,0 -1.66667,-0.36051 -1.66667,-1.25914 0,-0.9034 -0.63847,-1.37892 -2.25987,-1.6831 -1.47107,-0.27597 -2.38008,-0.88361 -2.60425,-1.74086 -0.20461,-0.78243 -0.91086,-1.3169 -1.74013,-1.3169 -0.9513,0 -1.39575,-0.42457 -1.39575,-1.33334 0,-1.11111 -0.44444,-1.33333 -2.66666,-1.33333 -2.22222,0 -2.66667,-0.22222 -2.66667,-1.33333 0,-0.97778 -0.44444,-1.33334 -1.66667,-1.33334 -1.19668,0 -1.66666,-0.35946 -1.66666,-1.27473 0,-0.96766 -0.64239,-1.38327 -2.66667,-1.72527 -1.54177,-0.26048 -2.66667,-0.82293 -2.66667,-1.33333 0,-0.50671 -1.10823,-1.07004 -2.60135,-1.3223 -1.78218,-0.3011 -2.70723,-0.84438 -2.93758,-1.72526 -0.26302,-1.00577 -0.93056,-1.28577 -3.06532,-1.28577 -2.28463,0 -2.72908,-0.21714 -2.72908,-1.33334 0,-1.1358 -0.44444,-1.33333 -3,-1.33333 -2.55555,0 -3,-0.19753 -3,-1.33333 0,-1.18746 -0.44444,-1.33334 -4.06241,-1.33334 -3.40456,0 -4.1151,-0.20145 -4.38774,-1.24405 -0.25541,-0.97668 -1.1943,-1.33487 -4.36871,-1.66666 -2.22387,-0.23244 -5.19939,-0.42262 -6.61226,-0.42262 -1.7299,0 -2.56888,-0.29811 -2.56888,-0.91277 0,-0.53685 -1.02961,-1.08296 -2.5,-1.326 -1.375,-0.22727 -89.125,-0.41652 -194.99999,-0.42056 -192.058,-0.007 -192.5,-0.004 -192.5,1.326 0,0.88889 -0.44444,1.33333 -1.33333,1.33333 -0.90876,0 -1.33333,0.44444 -1.33333,1.39575 0,0.83507 -0.5356,1.5358 -1.33334,1.74442 -1.32607,0.34677 -1.33333,0.90934 -1.33333,103.27092 0,91.04199 0.11543,102.92224 1,102.92224 0.84396,0 1,1.54348 1,9.89129 0,5.4402 0.19798,19.36776 0.43996,30.95013 0.41121,19.68274 0.52012,21.07981 1.66667,21.37963 1.02186,0.26723 1.2267,0.99917 1.2267,4.38321 0,3.61797 0.14587,4.06241 1.33334,4.06241 0.88888,0 1.33333,0.44444 1.33333,1.33333 0,0.85855 0.44444,1.33334 1.24813,1.33334 0.93428,0 1.35217,0.65067 1.66191,2.58767 0.29177,1.82465 0.80834,2.69084 1.75187,2.93758 0.80217,0.20977 1.33809,0.90894 1.33809,1.74567 0,0.9513 0.42457,1.39574 1.33333,1.39574 0.88889,0 1.33334,0.44445 1.33334,1.33334 0,1.11111 0.44444,1.33333 2.66666,1.33333 2.22222,0 2.66667,0.22222 2.66667,1.33333 0,0.97778 0.44444,1.33334 1.66667,1.33334 1.22222,0 1.66666,0.35555 1.66666,1.33333 0,1.02415 0.44445,1.33333 1.91667,1.33333 3.5878,0 5.9574,0.77975 6.2952,2.07153 0.32206,1.23155 2.9727,1.26177 110.55905,1.26036 60.62599,-7.9e-4 117.65408,-0.19883 126.72908,-0.44008 z m -98.83333,-57.55847 c 0,-0.88889 -0.44445,-1.33334 -1.33334,-1.33334 -0.87287,0 -1.33333,-0.44444 -1.33333,-1.28696 0,-0.82707 -0.53603,-1.3631 -1.5,-1.5 -0.96397,-0.13691 -1.57613,-0.74907 -1.71304,-1.71304 -0.17965,-1.26499 -0.62355,-1.5 -2.83333,-1.5 -2.17585,0 -2.6203,-0.22615 -2.6203,-1.33333 0,-0.88889 -0.44444,-1.33333 -1.33333,-1.33333 -0.88889,0 -1.33333,-0.44445 -1.33333,-1.33334 0,-0.87287 -0.44445,-1.33333 -1.28697,-1.33333 -0.82707,0 -1.36309,-0.53603 -1.5,-1.5 -0.13691,-0.96397 -0.74906,-1.57613 -1.71303,-1.71303 -0.96398,-0.13691 -1.5,-0.67294 -1.5,-1.5 0,-0.84253 -0.46046,-1.28697 -1.33334,-1.28697 -0.88889,0 -1.33333,-0.44444 -1.33333,-1.33333 0,-0.88889 -0.44445,-1.33334 -1.33333,-1.33334 -0.88889,0 -1.33334,-0.44444 -1.33334,-1.33333 0,-0.88889 -0.44444,-1.33333 -1.33333,-1.33333 -0.87288,0 -1.33333,-0.44445 -1.33333,-1.28697 0,-0.82707 -0.53603,-1.36309 -1.5,-1.5 -0.96398,-0.13691 -1.57613,-0.74906 -1.71304,-1.71303 -0.1369,-0.96397 -0.67293,-1.5 -1.5,-1.5 -0.84252,0 -1.28696,-0.46046 -1.28696,-1.33334 0,-0.88889 -0.44445,-1.33333 -1.33334,-1.33333 -0.88889,0 -1.33333,-0.44444 -1.33333,-1.33333 0,-0.97778 -0.44445,-1.33334 -1.66667,-1.33334 -1.22222,0 -1.66666,-0.35555 -1.66666,-1.33333 0,-0.88889 -0.44445,-1.33333 -1.33334,-1.33333 -0.88889,0 -1.33333,-0.44445 -1.33333,-1.33334 0,-0.88889 -0.44444,-1.33333 -1.33333,-1.33333 -0.97778,0 -1.33334,-0.44444 -1.33334,-1.66667 0,-1.22222 -0.35555,-1.66666 -1.33333,-1.66666 -0.88889,0 -1.33333,-0.44445 -1.33333,-1.33334 0,-0.97777 -0.44445,-1.33333 -1.66667,-1.33333 -1.18949,0 -1.66667,-0.3605 -1.66667,-1.25914 0,-0.90855 -0.6426,-1.37969 -2.30789,-1.6921 -1.98305,-0.37202 -2.36884,-0.75782 -2.74086,-2.74086 -0.31242,-1.6653 -0.78356,-2.3079 -1.69211,-2.3079 -0.89863,0 -1.25914,-0.47718 -1.25914,-1.66667 0,-1.33333 -0.33333,-1.66666 -1.66666,-1.66666 -1.22223,0 -1.66667,-0.35556 -1.66667,-1.33334 0,-0.88889 -0.44444,-1.33333 -1.33333,-1.33333 -0.88889,0 -1.33334,-0.44444 -1.33334,-1.33333 0,-0.88889 -0.44444,-1.33334 -1.33333,-1.33334 -0.88889,0 -1.33333,-0.44444 -1.33333,-1.33333 0,-0.88889 -0.44445,-1.33333 -1.33334,-1.33333 -0.97777,0 -1.33333,-0.44445 -1.33333,-1.66667 0,-1.22222 -0.35556,-1.66667 -1.33333,-1.66667 -0.88889,0 -1.33334,-0.44444 -1.33334,-1.33333 0,-0.90876 -0.44444,-1.33333 -1.39574,-1.33333 -0.81253,0 -1.53471,-0.53139 -1.72831,-1.2717 -0.1829,-0.69943 -0.90482,-1.42135 -1.60425,-1.60425 -0.74031,-0.1936 -1.2717,-0.91578 -1.2717,-1.72831 0,-0.9513 -0.42457,-1.39574 -1.33333,-1.39574 -0.88889,0 -1.33333,-0.44445 -1.33333,-1.33334 0,-0.88889 -0.44445,-1.33333 -1.33334,-1.33333 -0.88888,0 -1.33333,-0.44444 -1.33333,-1.33333 0,-0.88889 -0.44444,-1.33334 -1.33333,-1.33334 -0.90877,0 -1.33334,-0.44444 -1.33334,-1.39574 0,-0.81253 -0.53138,-1.53471 -1.27169,-1.72831 -0.69944,-0.1829 -1.42135,-0.90482 -1.60426,-1.60425 -0.19359,-0.74031 -0.91577,-1.2717 -1.7283,-1.2717 -1.18393,0 -1.39575,-0.40469 -1.39575,-2.66666 0,-2.22223 -0.22222,-2.66667 -1.33333,-2.66667 -1.11619,0 -1.33333,-0.44444 -1.33333,-2.72908 0,-2.16841 -0.27393,-2.80071 -1.33334,-3.07775 -0.92681,-0.24237 -1.33333,-0.90935 -1.33333,-2.18759 0,-3.14005 -0.79524,-6.00558 -1.66667,-6.00558 -0.91357,0 -1.66666,-2.89939 -1.66666,-6.41667 0,-1.80555 -0.26338,-2.25 -1.33334,-2.25 -1.28655,0 -1.33333,-0.44444 -1.33333,-12.66666 0,-12.22223 0.0468,-12.66667 1.33333,-12.66667 1.14517,0 1.33437,-0.44689 1.34067,-3.16667 0.0128,-5.51716 0.68756,-8.16666 2.0799,-8.16666 1.00934,0 1.2461,-0.50667 1.2461,-2.66667 0,-2.22222 0.22222,-2.66667 1.33333,-2.66667 0.97778,0 1.33334,-0.44444 1.33334,-1.66666 0,-1.22223 0.35555,-1.66667 1.33333,-1.66667 0.88889,0 1.33333,-0.44444 1.33333,-1.33333 0,-0.88889 0.44445,-1.33334 1.33334,-1.33334 0.88889,0 1.33333,-0.44444 1.33333,-1.33333 0,-0.90876 0.44445,-1.33333 1.39575,-1.33333 0.83507,0 1.53581,-0.5356 1.74442,-1.33334 0.19297,-0.73794 0.90934,-1.33333 1.60425,-1.33333 0.7919,0 1.25558,-0.47076 1.25558,-1.27473 0,-0.96233 0.63754,-1.38245 2.60135,-1.71423 1.78219,-0.3011 2.70723,-0.84439 2.93759,-1.72527 0.26301,-1.00576 0.93056,-1.28577 3.06531,-1.28577 2.28464,0 2.72908,-0.21714 2.72908,-1.33333 0,-1.22876 0.44445,-1.33334 5.66667,-1.33334 5.22222,0 5.66667,-0.10457 5.66667,-1.33333 0,-1.28655 0.44444,-1.33333 12.66666,-1.33333 12.22222,0 12.66667,0.0468 12.66667,1.33333 0,1.22876 0.44444,1.33333 5.66667,1.33333 5.22222,0 5.66666,0.10458 5.66666,1.33334 0,1.11111 0.44445,1.33333 2.66667,1.33333 2.19413,0 2.66667,0.22903 2.66667,1.29248 0,1.02075 0.63074,1.38708 3,1.74237 2.33638,0.35036 3,0.72807 3,1.70751 0,1.0228 0.49794,1.25764 2.66666,1.25764 2.22222,0 2.66667,0.22222 2.66667,1.33333 0,0.88889 0.44444,1.33334 1.33333,1.33334 0.88889,0 1.33334,0.44444 1.33334,1.33333 0,0.90876 0.44444,1.33333 1.39574,1.33333 0.83508,0 1.53581,0.5356 1.74442,1.33334 0.19298,0.73794 0.90935,1.33333 1.60426,1.33333 0.89484,0 1.25558,0.47885 1.25558,1.66667 0,1.49508 0.26975,1.66666 2.62029,1.66666 2.20979,0 2.65368,-0.235 2.83334,-1.5 0.1369,-0.96397 0.74906,-1.57612 1.71303,-1.71303 0.96397,-0.13691 1.5,-0.67293 1.5,-1.5 0,-0.84252 0.46046,-1.28697 1.33333,-1.28697 0.88889,0 1.33334,-0.44444 1.33334,-1.33333 0,-1.11111 0.44444,-1.33333 2.66666,-1.33333 2.22223,0 2.66667,-0.22223 2.66667,-1.33334 0,-0.90876 0.44445,-1.33333 1.39575,-1.33333 0.81786,0 1.53496,-0.53235 1.73198,-1.28577 0.23036,-0.88088 1.1554,-1.42417 2.93759,-1.72527 1.96381,-0.33178 2.60135,-0.7519 2.60135,-1.71423 0,-1.06635 0.49041,-1.27473 3,-1.27473 2.55555,0 3,-0.19753 3,-1.33333 0,-1.18519 0.44444,-1.33334 4,-1.33334 3.55555,0 4,-0.14814 4,-1.33333 0,-1.29469 0.44444,-1.33333 15.33333,-1.33333 14.88889,0 15.33333,0.0386 15.33333,1.33333 0,1.15556 0.44445,1.33333 3.33334,1.33333 2.88889,0 3.33333,0.17778 3.33333,1.33334 0,1.11111 0.44444,1.33333 2.66667,1.33333 2.18136,0 2.66666,0.23199 2.66666,1.27473 0,0.96766 0.64239,1.38327 2.66667,1.72527 2.02428,0.342 2.66667,0.75761 2.66667,1.72527 0,0.83029 0.46487,1.27473 1.33333,1.27473 0.88889,0 1.33333,0.44444 1.33333,1.33333 0,0.97778 0.44445,1.33334 1.66667,1.33334 1.22222,0 1.66667,0.35555 1.66667,1.33333 0,0.88889 0.44444,1.33333 1.33333,1.33333 0.88889,0 1.33333,0.44445 1.33333,1.33334 0,0.88889 0.44445,1.33333 1.33334,1.33333 0.97777,0 1.33333,0.44444 1.33333,1.66667 0,1.22222 0.35555,1.66666 1.33333,1.66666 1.11111,0 1.33334,0.44445 1.33334,2.66667 0,2.16872 0.23483,2.66667 1.25763,2.66667 0.97944,0 1.35716,0.66362 1.70752,3 0.35529,2.36925 0.72162,3 1.74236,3 1.24707,0 1.29249,0.63473 1.29249,18.06241 0,17.16047 -0.063,18.07889 -1.26181,18.39238 -1.29178,0.33781 -2.07153,2.70741 -2.07153,6.29521 0,1.47222 -0.30918,1.91666 -1.33333,1.91666 -1.10444,0 -1.33333,0.44445 -1.33333,2.58892 0,2.02824 -0.28876,2.66442 -1.33334,2.93758 -1.05941,0.27704 -1.33333,0.90935 -1.33333,3.07776 0,2.28463 -0.21714,2.72908 -1.33333,2.72908 -0.88889,0 -1.33334,0.44444 -1.33334,1.33333 0,0.87288 -0.44444,1.33333 -1.28696,1.33333 -0.82707,0 -1.3631,0.53603 -1.5,1.5 -0.13691,0.96397 -0.74907,1.57613 -1.71304,1.71304 -0.96397,0.1369 -1.5,0.67293 -1.5,1.5 0,0.84252 -0.46045,1.28696 -1.33333,1.28696 -1.11111,0 -1.33333,0.44445 -1.33333,2.66667 0,2.22222 -0.22223,2.66667 -1.33334,2.66667 -0.87287,0 -1.33333,0.44444 -1.33333,1.28696 0,0.82707 -0.53603,1.3631 -1.5,1.5 -0.96397,0.13691 -1.57613,0.74907 -1.71303,1.71304 -0.13691,0.96397 -0.67294,1.5 -1.5,1.5 -0.84253,0 -1.28697,0.46045 -1.28697,1.33333 0,0.88889 -0.44444,1.33333 -1.33333,1.33333 -0.88889,0 -1.33334,0.44445 -1.33334,1.33334 0,0.88889 -0.44444,1.33333 -1.33333,1.33333 -0.87288,0 -1.33333,0.44444 -1.33333,1.28697 0,0.82706 -0.53603,1.36309 -1.5,1.5 -0.96398,0.1369 -1.57613,0.74906 -1.71304,1.71303 -0.1369,0.96397 -0.67293,1.5 -1.5,1.5 -0.84252,0 -1.28696,0.46046 -1.28696,1.33333 0,0.88889 -0.44445,1.33334 -1.33334,1.33334 -0.88889,0 -1.33333,0.44444 -1.33333,1.33333 0,0.88889 -0.44444,1.33333 -1.33333,1.33333 -0.88889,0 -1.33334,0.44445 -1.33334,1.33334 0,0.88889 -0.44444,1.33333 -1.33333,1.33333 -0.97778,0 -1.33333,0.44444 -1.33333,1.66667 0,1.22222 -0.35556,1.66666 -1.33334,1.66666 -0.88889,0 -1.33333,0.44445 -1.33333,1.33334 0,0.97777 -0.44444,1.33333 -1.66667,1.33333 -1.22222,0 -1.66666,0.35556 -1.66666,1.33333 0,0.88889 -0.44445,1.33334 -1.33334,1.33334 -0.88889,0 -1.33333,0.44444 -1.33333,1.33333 0,0.88889 -0.44444,1.33333 -1.33333,1.33333 -0.87288,0 -1.33334,0.44445 -1.33334,1.28697 0,0.82707 -0.53602,1.36309 -1.5,1.5 -0.96397,0.13691 -1.57612,0.74906 -1.71303,1.71303 -0.13691,0.96397 -0.67293,1.5 -1.5,1.5 -0.84252,0 -1.28697,0.46046 -1.28697,1.33334 0,0.88889 -0.44444,1.33333 -1.33333,1.33333 -0.88889,0 -1.33333,0.44444 -1.33333,1.33333 0,0.88889 -0.44445,1.33334 -1.33334,1.33334 -0.87287,0 -1.33333,0.44444 -1.33333,1.28696 0,0.82707 -0.53603,1.3631 -1.5,1.5 -0.96397,0.13691 -1.57613,0.74907 -1.71303,1.71304 -0.13691,0.96397 -0.67294,1.5 -1.5,1.5 -0.84252,0 -1.28697,0.46045 -1.28697,1.33333 0,0.88889 -0.44444,1.33333 -1.33333,1.33333 -0.88889,0 -1.33334,0.44445 -1.33334,1.33334 0,0.88889 -0.44444,1.33333 -1.33333,1.33333 -0.88889,0 -1.33333,0.44444 -1.33333,1.33333 0,0.90877 -0.44445,1.33334 -1.39575,1.33334 -0.81253,0 -1.53471,0.53138 -1.7283,1.27169 -0.18291,0.69944 -0.90482,1.42135 -1.60425,1.60426 -0.74032,0.19359 -1.2717,0.91577 -1.2717,1.7283 0,1.18393 -0.4047,1.39575 -2.66667,1.39575 -2.4,0 -2.66667,0.16666 -2.66667,1.66666 0,1.18782 -0.36073,1.66667 -1.25557,1.66667 -0.69491,0 -1.41128,0.59539 -1.60426,1.33333 -0.20861,0.79774 -0.90934,1.33334 -1.74442,1.33334 -0.9513,0 -1.39575,0.42457 -1.39575,1.33333 0,0.88889 -0.44444,1.33333 -1.33333,1.33333 -0.88889,0 -1.33333,0.44445 -1.33333,1.33334 0,1.11111 -0.44445,1.33333 -2.66667,1.33333 -2.22222,0 -2.66666,-0.22222 -2.66666,-1.33333 z m 183.33332,-61.9414 c 0,-0.96766 -0.64238,-1.38327 -2.66666,-1.72527 -2.02428,-0.342 -2.66667,-0.75761 -2.66667,-1.72527 0,-0.80196 -0.4636,-1.27473 -1.25,-1.27473 -0.86667,0 -1.37778,-0.63889 -1.66667,-2.08333 -0.22916,-1.14584 -0.41666,-30.65834 -0.41666,-65.58334 0,-34.925 0.1875,-64.4375 0.41666,-65.58333 0.28889,-1.44444 0.8,-2.08333 1.66667,-2.08333 0.80556,0 1.25,-0.47408 1.25,-1.33334 0,-0.88889 0.44444,-1.33333 1.33333,-1.33333 0.85926,0 1.33334,-0.44444 1.33334,-1.25 0,-1.89434 2.1772,-2.08333 24,-2.08333 20.47861,0 24,0.24454 24,1.66666 0,0.91358 2.89938,1.66667 6.41666,1.66667 1.80556,0 2.25,0.26337 2.25,1.33333 0,1.13581 0.44445,1.33334 3,1.33334 2.55556,0 3,0.19753 3,1.33333 0,1.11111 0.44445,1.33333 2.66667,1.33333 2.22222,0 2.66667,0.22223 2.66667,1.33334 0,0.88889 0.44444,1.33333 1.33333,1.33333 0.86846,0 1.33333,0.44444 1.33333,1.27473 0,0.96766 0.64239,1.38327 2.66667,1.72527 2.02428,0.342 2.66667,0.75761 2.66667,1.72527 0,0.83029 0.46487,1.27473 1.33333,1.27473 0.88889,0 1.33333,0.44444 1.33333,1.33333 0,0.97778 0.44445,1.33334 1.66667,1.33334 1.33333,0 1.66666,0.33333 1.66666,1.66666 0,1.22223 0.35556,1.66667 1.33334,1.66667 1.11111,0 1.33333,0.44444 1.33333,2.66667 0,2.22222 0.22222,2.66666 1.33333,2.66666 0.88889,0 1.33334,0.44445 1.33334,1.33334 0,0.87484 0.44444,1.33333 1.29248,1.33333 1.02074,0 1.38707,0.63075 1.74237,3 0.35036,2.33638 0.72807,3 1.70751,3 1.0228,0 1.25764,0.49795 1.25764,2.66667 0,2.22222 0.22222,2.66666 1.33333,2.66666 1.06996,0 1.33333,0.44445 1.33333,2.25 0,3.50214 0.75174,6.41667 1.65503,6.41667 0.91895,0 1.67831,5.6245 1.67831,12.43113 0,3.32048 0.21604,4.23554 1,4.23554 0.82828,0 1,1.25926 1,7.33333 0,6.07407 -0.17172,7.33333 -1,7.33333 -0.71027,0 -1.00138,0.72433 -1.00474,2.5 -0.0106,5.6031 -0.86952,11.5 -1.675,11.5 -0.8684,0 -1.6536,2.88861 -1.6536,6.08334 0,1.47222 -0.30917,1.91666 -1.33333,1.91666 -1.1358,0 -1.33333,0.44445 -1.33333,3 0,2.50959 -0.20838,3 -1.27474,3 -0.96232,0 -1.38244,0.63754 -1.71423,2.60135 -0.3011,1.78219 -0.84438,2.70724 -1.72526,2.93759 -0.75343,0.19703 -1.28577,0.91412 -1.28577,1.73198 0,0.95131 -0.42457,1.39575 -1.33334,1.39575 -0.88888,0 -1.33333,0.44444 -1.33333,1.33333 0,0.88889 -0.44444,1.33334 -1.33333,1.33334 -0.88889,0 -1.33334,0.44444 -1.33334,1.33333 0,0.88889 -0.44444,1.33333 -1.33333,1.33333 -0.88889,0 -1.33333,0.44445 -1.33333,1.33334 0,0.87287 -0.44445,1.33333 -1.28697,1.33333 -0.82706,0 -1.36309,0.53603 -1.5,1.5 -0.1369,0.96397 -0.74906,1.57613 -1.71303,1.71303 -0.96397,0.13691 -1.5,0.67294 -1.5,1.5 0,0.84253 -0.46046,1.28697 -1.33333,1.28697 -0.88889,0 -1.33334,0.44444 -1.33334,1.33333 0,1.11111 -0.44444,1.33334 -2.66666,1.33334 -2.22223,0 -2.66667,0.22222 -2.66667,1.33333 0,1.1358 -0.44445,1.33333 -3,1.33333 -2.48889,0 -3,0.21297 -3,1.25 0,1.29781 -2.26443,2.08334 -6.00558,2.08334 -1.27824,0 -1.94522,0.40652 -2.18759,1.33333 -0.32517,1.24346 -0.90934,1.33333 -8.66666,1.33333 -7.75733,0 -8.3415,0.0899 -8.66667,1.33334 -0.33598,1.28477 -0.90934,1.33333 -15.74442,1.33333 -14.71539,0 -15.39575,-0.0563 -15.39575,-1.27473 z m 28.43113,-24.72527 c 2.13529,0 2.90221,-0.26425 2.90221,-1 0,-0.73575 0.76691,-1 2.9022,-1 1.59622,0 4.74622,-0.19274 7,-0.4283 3.39488,-0.35484 4.0978,-0.64073 4.0978,-1.66667 0,-1.02325 0.52113,-1.23836 3,-1.23836 2.55555,0 3,-0.19753 3,-1.33334 0,-1.11111 0.44444,-1.33333 2.66666,-1.33333 2.22222,0 2.66667,-0.22222 2.66667,-1.33333 0,-0.88889 0.44444,-1.33334 1.33333,-1.33334 0.97778,0 1.33334,-0.44444 1.33334,-1.66666 0,-1.22223 0.35555,-1.66667 1.33333,-1.66667 0.88889,0 1.33333,-0.44444 1.33333,-1.33333 0,-0.86846 0.44445,-1.33334 1.27474,-1.33334 0.96765,0 1.38326,-0.64238 1.72526,-2.66666 0.342,-2.02428 0.75761,-2.66667 1.72527,-2.66667 1.04274,0 1.27473,-0.48531 1.27473,-2.66667 0,-2.22222 0.22222,-2.66666 1.33334,-2.66666 1.19852,0 1.33333,-0.44445 1.33333,-4.39575 0,-3.83508 0.17006,-4.44022 1.33333,-4.74442 1.25537,-0.32829 1.33334,-0.90934 1.33334,-9.93759 0,-7.6916 -0.18138,-9.58891 -0.91667,-9.58891 -1.10033,0 -1.75,-2.87711 -1.75,-7.75 0,-3.13889 -0.16538,-3.58333 -1.33333,-3.58333 -1.13581,0 -1.33334,-0.44445 -1.33334,-3 0,-2.50959 -0.20838,-3 -1.27473,-3 -0.96766,0 -1.38327,-0.64239 -1.72527,-2.66667 -0.342,-2.02428 -0.75761,-2.66667 -1.72526,-2.66667 -0.83029,0 -1.27474,-0.46487 -1.27474,-1.33333 0,-0.88889 -0.44444,-1.33333 -1.33333,-1.33333 -0.97778,0 -1.33333,-0.44445 -1.33333,-1.66667 0,-1.22222 -0.35556,-1.66667 -1.33334,-1.66667 -0.88889,0 -1.33333,-0.44444 -1.33333,-1.33333 0,-0.86137 -0.44445,-1.33333 -1.25558,-1.33333 -0.69491,0 -1.41128,-0.59539 -1.60425,-1.33334 -0.26708,-1.02129 -0.90935,-1.33333 -2.74442,-1.33333 -1.95131,0 -2.39575,-0.24735 -2.39575,-1.33333 0,-1.13581 -0.44445,-1.33334 -3,-1.33334 -2.55556,0 -3,-0.19753 -3,-1.33333 0,-1.28655 -0.44445,-1.33333 -12.66667,-1.33333 h -12.66666 v 48.09497 48.09497 l 4.09779,-0.42831 c 2.25379,-0.23556 5.40379,-0.4283 7,-0.4283 z"
       id="path1" />
  </g>
</svg>
