<?xml version="1.0" encoding="UTF-8" standalone="no"?>
<!-- Created with Inkscape (http://www.inkscape.org/) -->

<svg
   width="189.16823mm"
   height="211.66667mm"
   viewBox="0 0 189.16823 211.66667"
   version="1.1"
   id="svg1"
   xml:space="preserve"
   inkscape:export-filename="icon-dark-moon.svg"
   inkscape:export-xdpi="96"
   inkscape:export-ydpi="96"
   xmlns:inkscape="http://www.inkscape.org/namespaces/inkscape"
   xmlns:sodipodi="http://sodipodi.sourceforge.net/DTD/sodipodi-0.dtd"
   xmlns="http://www.w3.org/2000/svg"
   xmlns:svg="http://www.w3.org/2000/svg"><sodipodi:namedview
     id="namedview1"
     pagecolor="#505050"
     bordercolor="#ffffff"
     borderopacity="1"
     inkscape:showpageshadow="0"
     inkscape:pageopacity="0"
     inkscape:pagecheckerboard="1"
     inkscape:deskcolor="#505050"
     inkscape:document-units="mm" /><defs
     id="defs1" /><g
     inkscape:label="Layer 1"
     inkscape:groupmode="layer"
     id="layer1"
     transform="translate(-10.384008,-42.656214)"><g
       style="fill:#2848a9;fill-opacity:1;stroke:none;stroke-opacity:1"
       id="g1"
       transform="matrix(0.41341146,0,0,0.41341146,10.384008,42.588944)"><path
         d="m 256,512.16272 c 78.962,0 151.079,-35.925 198.857,-94.792 7.068,-8.708 -0.639,-21.43 -11.562,-19.35 -124.203,23.654 -238.262,-71.576 -238.262,-196.954 0,-72.222 38.662,-138.635002 101.498,-174.394002 9.686,-5.512 7.25,-20.197 -3.756,-22.23 A 258.156,258.156 0 0 0 256,0.16271797 C 114.691,0.16271797 -4.4250487e-7,114.67372 -4.4250487e-7,256.16272 -4.4250487e-7,397.47172 114.511,512.16272 256,512.16272 Z"
         id="path1"
         style="fill:#2848a9;fill-opacity:1;stroke:none;stroke-opacity:1" /><path
         style="fill:#2848a9;fill-opacity:1;stroke:none;stroke-width:0.608311;stroke-opacity:1"
         d="M 244.58022,511.51257 C 189.78073,509.11935 139.18229,489.92104 95.170971,454.82299 85.194267,446.86679 64.891393,426.51114 56.648788,416.20068 49.945089,407.81519 38.624308,391.18944 33.69625,382.49249 16.730384,352.55142 6.1272344,319.99143 1.852892,284.70839 c -1.56589308,-12.92584 -1.56589308,-44.16551 0,-57.09134 C 8.871774,169.67891 33.025429,118.87361 72.995342,77.974545 96.307156,54.120824 122.49744,35.686472 151.0476,23.036511 185.68324,7.6902053 218.28813,0.74360699 255.81628,0.71513614 c 15.34306,-0.01164 23.66866,0.54838546 37.656,2.53294896 10.25463,1.4549564 11.92338,1.9548794 14.71907,4.4095327 2.64503,2.3223706 3.80524,4.9444912 3.80524,8.5999992 0,5.894304 -1.31351,7.329345 -14.09242,15.396285 -20.49807,12.939813 -39.3318,30.486064 -54.13787,50.43697 -38.48431,51.856918 -49.32312,121.778108 -28.44301,183.485838 22.24586,65.74395 77.57914,115.69779 145.40185,131.26605 14.57784,3.34625 22.47812,4.26447 39.67512,4.61129 16.68857,0.33657 24.44596,-0.1346 38.03635,-2.31022 6.13187,-0.98163 8.20033,-1.09887 10.14558,-0.57507 6.56266,1.76714 10.2892,9.31 7.6822,15.54946 -2.14778,5.14036 -23.04979,27.12281 -36.15867,38.02774 -29.26074,24.34124 -62.94489,41.73927 -99.60616,51.44706 -15.38745,4.07454 -34.81661,7.09365 -49.35521,7.66934 -4.4219,0.17509 -9.95298,0.40149 -12.29129,0.5031 -2.33832,0.10162 -8.7611,-0.0122 -14.27284,-0.25289 z"
         id="path2" /><path
         style="fill:#2848a9;fill-opacity:1;stroke:none;stroke-width:0.608311;stroke-opacity:1"
         d="M 242.33296,511.52071 C 191.97084,508.79043 143.55476,491.3026 103.49813,461.37374 84.794209,447.39885 65.161185,427.8952 51.605908,409.82345 14.180456,359.92827 -3.6069915,298.93728 1.0354962,236.42369 3.7205522,200.26797 14.850852,163.27683 32.533169,131.74236 68.268379,68.012536 129.49835,22.308493 200.24333,6.5580541 c 18.80481,-4.1866433 34.6982,-5.85084077 55.87663,-5.85084077 21.87372,0 43.40142,2.29862347 49.65205,5.30160447 4.30439,2.0679475 6.22458,5.2651512 6.22458,10.3641812 0,6.04345 -0.51863,6.577327 -16.70225,17.193146 -12.1124,7.945255 -20.68628,14.909671 -31.02167,25.198355 -9.68381,9.640048 -14.93261,15.764496 -22.10953,25.79802 -17.11383,23.92558 -28.74295,51.54122 -33.98136,80.69541 -2.31935,12.90826 -3.07962,21.87571 -3.07962,36.32449 0,40.2159 11.33892,77.67611 33.58629,110.95859 29.50504,44.14008 75.72484,74.99871 127.97007,85.43914 22.30016,4.45637 47.33326,4.85647 71.25687,1.13892 9.38183,-1.45786 11.53812,-1.21519 14.98675,1.68664 3.94887,3.32276 5.41893,9.52433 3.26055,13.7549 -2.53158,4.96208 -19.1278,22.79447 -30.89445,33.19565 -50.14592,44.32664 -116.27879,67.37811 -182.93528,63.76445 z"
         id="path3" /><path
         style="fill:#2848a9;fill-opacity:1;stroke:none;stroke-width:0.608311;stroke-opacity:1"
         d="m 244.8839,511.80179 c -26.7037,-1.60461 -48.18926,-5.66381 -71.0605,-13.4252 C 136.46442,485.69876 104.23775,465.6872 75.859323,437.54456 34.873297,396.89908 10.083153,346.63594 2.1269336,288.04884 0.93865524,279.29873 0.76356404,275.33091 0.74666676,256.77007 0.72629748,234.39477 1.0653976,229.626 3.8562136,213.04054 14.205091,151.53847 47.16034,95.741752 96.385678,56.378359 133.03449,27.07187 176.60376,8.4891839 222.52037,2.5807614 c 21.06802,-2.71097359 46.1994,-2.70898561 67.19918,0.00532 15.22123,1.9674016 18.71353,3.2976432 21.13902,8.0519856 1.01119,1.982105 1.21721,3.303568 1.03042,6.609395 -0.30073,5.322196 -1.10249,6.19453 -12.64684,13.760208 -35.72595,23.413251 -61.03349,52.592202 -77.02159,88.80392 -28.07721,63.59257 -21.25688,137.57455 17.94526,194.65718 9.97501,14.52471 26.57936,32.41698 39.92943,43.02654 23.98553,19.06178 51.89516,32.53897 81.10946,39.16663 23.83378,5.40702 49.77857,6.26753 75.60327,2.50751 11.1283,-1.62026 12.95002,-1.35535 16.7395,2.43412 3.19733,3.19733 3.97265,5.46532 3.45086,10.09457 -0.41775,3.70636 -4.80907,9.32653 -17.35698,22.21409 -11.80573,12.1253 -18.84597,18.35129 -31.0472,27.45643 -36.73968,27.41686 -80.50746,44.45805 -126.45068,49.23412 -8.74997,0.90962 -30.45299,1.60801 -37.25958,1.19901 z"
         id="path4" /><path
         style="fill:#2848a9;fill-opacity:1;stroke:none;stroke-width:0.608311;stroke-opacity:1"
         d="M 238.50668,511.51324 C 175.64627,506.81563 119.2932,481.07858 75.096808,436.88219 35.731153,397.51654 11.38173,349.22567 2.8394994,293.57826 0.83113076,280.49497 0.2454194,268.97536 0.61286708,249.7855 1.0476773,227.07765 2.5775948,215.09466 7.708092,194.21254 25.33701,122.45944 74.718702,60.827223 141.32993,27.442014 181.45311,7.3324799 225.06513,-1.7346083 269.72403,0.748447 c 12.74155,0.7084362 27.63907,2.4782321 33.0447,3.9256456 6.37837,1.7078736 9.3391,5.5212784 9.30816,11.9888944 -0.0266,5.555131 -1.09377,6.813193 -11.62004,13.698233 -9.2693,6.062877 -16.19469,11.048522 -22.47212,16.177863 -7.02055,5.736544 -22.98831,21.881337 -28.61834,28.935616 -24.21891,30.345671 -38.59407,65.267511 -43.12677,104.768681 -0.99845,8.70118 -0.99746,32.70359 0.002,41.6038 5.22293,46.52347 25.09603,88.36567 57.12229,120.26922 16.35003,16.28739 32.77324,28.17134 52.8099,38.21364 36.86877,18.4785 75.84397,24.60389 119.85108,18.83595 5.88334,-0.77112 11.07554,-1.15639 12.35346,-0.91666 2.80042,0.52536 7.25959,4.56726 8.2075,7.43947 1.15334,3.49467 0.46077,8.04888 -1.70208,11.19248 -5.30992,7.71771 -27.58105,30.09458 -38.6141,38.79745 -33.78339,26.64834 -71.45876,44.01658 -112.47208,51.84933 -20.70581,3.9544 -45.47326,5.46615 -65.29063,3.98518 z"
         id="path5" /><path
         style="fill:#2848a9;fill-opacity:1;stroke:none;stroke-width:0.608311;stroke-opacity:1"
         d="m 240.93609,511.7701 c -1.16916,-0.10902 -5.54211,-0.50207 -9.71767,-0.87343 -42.85565,-3.8115 -88.14486,-20.69987 -123.293,-45.97603 C 53.849544,426.03293 18.168886,371.033 4.9681586,306.21724 1.1880466,287.65684 0.73823988,282.35087 0.75059764,256.4664 0.76262964,231.25986 1.129541,226.19519 4.116572,210.00376 15.686487,147.28815 49.961761,91.644209 101.24451,52.322127 135.93565,25.722 179.16236,7.9339538 222.71545,2.3361203 c 23.31763,-2.99699049 50.48278,-2.660223 72.82463,0.9028101 8.57174,1.3670036 11.86219,2.6037704 14.14486,5.3165805 1.83472,2.1804291 3.06831,7.0462561 2.52471,9.9585201 -0.75867,4.064424 -2.47598,5.730201 -13.75852,13.345671 -14.49852,9.786185 -24.03855,17.507173 -34.63078,28.027573 -52.04612,51.693195 -71.24217,128.603125 -49.80709,199.554635 6.12107,20.26115 17.15196,42.51863 29.22806,58.97466 8.29705,11.30634 21.42429,25.48071 32.01031,34.56372 29.46851,25.2845 64.51612,41.06051 103.55398,46.61286 11.94839,1.69942 42.48441,1.55582 55.63291,-0.26161 11.05175,-1.52762 13.72519,-1.64251 15.61935,-0.67127 1.94983,0.99979 5.25142,4.24055 6.23728,6.12235 1.08902,2.07872 1.10839,7.21657 0.0369,9.78106 -2.40436,5.75447 -25.15352,29.20935 -39.55657,40.7837 -46.50503,37.37166 -103.68876,57.21906 -163.38859,56.70913 -5.67877,-0.0485 -11.28161,-0.17739 -12.45077,-0.28641 z"
         id="path6" /><path
         style="fill:#2848a9;fill-opacity:1;stroke:none;stroke-width:0.608311;stroke-opacity:1"
         d="M 238.50668,511.78223 C 202.63399,508.48806 174.3964,500.98436 145.27773,487.00808 98.903944,464.74974 59.203028,427.84741 33.554799,383.1607 17.568404,355.30772 6.589548,322.61474 1.8185938,288.6562 0.44372404,278.87019 0.24901364,236.26313 1.5327116,226.09866 8.0739743,174.30419 28.91559,127.28991 62.5162,88.532824 69.345896,80.655012 83.507572,66.687403 91.223163,60.21925 130.39164,27.383434 176.42731,7.6385951 227.90092,1.5977423 c 11.31056,-1.32738766 43.02309,-1.51609876 53.72794,-0.3197176 16.82029,1.8798469 23.68964,3.4095567 26.70502,5.9468424 2.75245,2.3160262 3.8614,4.8737169 3.9164,9.0327499 0.0739,5.588521 -1.00894,6.916907 -11.5175,14.129255 -19.30171,13.247353 -27.00518,19.572336 -39.45564,32.395322 -9.37974,9.660402 -14.31249,15.712428 -21.48321,26.357983 -17.37262,25.791123 -27.36634,51.675743 -32.35986,83.814953 -1.59517,10.26679 -2.19535,34.39906 -1.14291,45.95465 2.31689,25.43911 9.03856,48.94571 20.58898,72.00257 10.15656,20.27445 20.9481,35.1045 37.70342,51.81313 31.56656,31.47861 70.63908,50.72477 115.43675,56.86131 10.87524,1.48973 39.62705,1.48711 51.0178,-0.004 4.50961,-0.59059 10.29745,-1.23035 12.86187,-1.42169 4.28707,-0.31988 4.88497,-0.21757 7.42395,1.27038 3.89363,2.28182 5.83043,5.78193 5.83043,10.53655 0,3.25021 -0.26673,4.07584 -2.27758,7.05 -5.67261,8.3901 -25.55513,28.3917 -38.60071,38.83193 -38.49478,30.80689 -84.53976,49.69699 -134.34354,55.11487 -6.16172,0.67029 -38.41782,1.27793 -43.42585,0.81805 z"
         id="path7" /><path
         style="fill:#2848a9;fill-opacity:1;stroke:none;stroke-width:0.608311;stroke-opacity:1"
         d="M 234.25519,511.53199 C 198.19765,507.69691 170.26059,499.66922 140.41889,484.5682 114.66698,471.53675 96.501563,458.27769 75.086388,436.88152 58.542856,420.35268 47.607252,406.60072 36.684066,388.58906 23.729219,367.22732 13.620893,342.70003 7.3887218,317.50554 1.431902,293.4242 0.12552884,280.41037 0.59382644,249.81611 0.85821556,232.54334 1.1461848,227.32781 2.2219314,220.32879 7.3155986,187.18842 17.4541,157.46096 33.085389,129.83295 37.885275,121.34924 49.285947,104.60983 56.042964,96.12476 63.941819,86.205822 85.531918,64.477892 94.85291,57.067042 109.92742,45.081736 122.97638,36.626593 139.32319,28.252295 166.75928,14.197076 195.83203,5.3266228 226.35958,1.6964224 c 24.21567,-2.8796192 66.16761,-1.06663714 78.03141,3.3721816 6.88721,2.5768359 9.98124,9.665425 7.04308,16.136099 -1.24961,2.751994 -2.55857,3.817722 -16.13973,13.140609 -12.74706,8.750315 -20.85003,15.463771 -31.28483,25.92006 -10.97899,11.001583 -17.10428,18.448975 -25.08402,30.49821 -21.66272,32.710278 -32.78752,69.117848 -33.18763,108.611478 -0.40559,40.03609 10.87174,78.14053 33.22083,112.24825 12.88875,19.66997 34.37504,41.28732 54.81726,55.15164 26.0076,17.63887 59.20371,29.93383 89.03644,32.97673 13.65381,1.39268 40.78503,0.79665 56.05366,-1.23138 7.41018,-0.98425 11.12362,-0.53689 13.84822,1.66831 3.05294,2.47095 4.61362,5.69859 4.61362,9.54142 0,4.01563 -1.35693,6.65702 -6.60019,12.84787 -5.54056,6.54189 -22.95257,23.84424 -29.71094,29.52385 -38.17598,32.08236 -85.2174,52.37442 -135.74377,58.55525 -9.55829,1.16925 -42.87822,1.74071 -51.0178,0.87499 z"
         id="path8" /><path
         style="fill:#2848a9;fill-opacity:1;fill-rule:nonzero;stroke:none;stroke-width:0.608311;stroke-opacity:1"
         d="M 235.77358,511.78102 C 198.87438,507.82192 170.9795,499.97757 141.70889,485.32899 113.17781,471.0505 90.931265,454.29008 67.688545,429.56248 32.74596,392.38754 10.587267,345.8886 2.1326738,291.99664 1.1133848,285.49941 0.84008884,280.16827 0.58957236,261.8956 0.25464244,237.46583 0.74658932,228.46102 3.2148869,213.84072 10.861078,168.55054 30.8381,125.52262 60.304276,90.877528 66.27515,83.857233 81.783022,68.224779 89.097422,61.853081 126.65563,29.135481 173.91946,8.3394936 226.05591,1.5916395 c 12.10744,-1.56702915 47.11674,-1.57591106 59.82443,-0.015178 16.00054,1.9651544 20.77123,3.3740851 23.86191,7.0471597 3.34339,3.9733858 3.70766,10.4727818 0.80058,14.2841548 -0.82226,1.078034 -6.36605,5.349171 -12.31955,9.491417 -15.51214,10.792818 -24.05939,17.892056 -35.14816,29.193588 -11.70219,11.926724 -15.67564,16.755057 -23.65742,28.747249 -17.79289,26.73288 -28.58599,55.82026 -32.13424,86.60172 -5.3337,46.27032 4.68718,91.20065 29.11508,130.54244 13.31617,21.44607 35.22527,44.04012 57.07374,58.85807 27.41703,18.59465 59.68252,30.40912 91.40688,33.46994 10.5427,1.01717 34.0571,0.69237 46.76631,-0.64599 15.67573,-1.65075 17.46683,-1.6002 20.4735,0.57781 3.60872,2.61415 5.22494,5.59663 5.25729,9.70152 0.0341,4.33108 -1.07983,6.6319 -6.12503,12.65076 -6.65241,7.93625 -26.10974,26.83316 -34.78964,33.78758 -32.31779,25.89338 -70.57256,43.64786 -111.44958,51.72503 -16.50137,3.26062 -24.66199,4.00272 -46.46263,4.22516 -11.19051,0.11418 -21.43962,0.0903 -22.7758,-0.053 z"
         id="path9" /></g></g></svg>
