<?xml version="1.0" encoding="UTF-8" standalone="no"?>
<svg
   version="1.1"
   width="600"
   height="775"
   style="clip-rule:evenodd;fill-rule:evenodd;image-rendering:optimizeQuality;shape-rendering:geometricPrecision;text-rendering:geometricPrecision"
   id="svg113"
   sodipodi:docname="github_repo.svg"
   xmlns:inkscape="http://www.inkscape.org/namespaces/inkscape"
   xmlns:sodipodi="http://sodipodi.sourceforge.net/DTD/sodipodi-0.dtd"
   xmlns="http://www.w3.org/2000/svg"
   xmlns:svg="http://www.w3.org/2000/svg">
  <defs
     id="defs113" />
  <sodipodi:namedview
     id="namedview113"
     pagecolor="#505050"
     bordercolor="#ffffff"
     borderopacity="1"
     inkscape:showpageshadow="0"
     inkscape:pageopacity="0"
     inkscape:pagecheckerboard="1"
     inkscape:deskcolor="#505050" />
  <g
     id="g1"
     transform="translate(0.5,0.5)">
    <path
       style="opacity:1"
       fill="#8f8f8f"
       d="m 135.5,-0.5 c 140,0 280,0 420,0 0,0.333333 0,0.666667 0,1 0,0.333333 0,0.66667 0,1 -139.994,-1.325093 -279.994,-1.325093 -420,0 0,-0.33333 0,-0.666667 0,-1 0,-0.333333 0,-0.666667 0,-1 z"
       id="path1" />
  </g>
  <g
     id="g2"
     transform="translate(0.5,0.5)">
    <path
       style="opacity:1"
       fill="#696969"
       d="m 135.5,0.5 c 0,0.333333 0,0.66667 0,1 -6.377,0.42794 -12.71,1.09461 -19,2 0.111,-0.61742 0.444,-1.11742 1,-1.5 5.955,-1.071653 11.955,-1.571653 18,-1.5 z"
       id="path2" />
  </g>
  <g
     id="g3"
     style="fill:#2848a9;fill-opacity:1;stroke:none;stroke-opacity:1"
     transform="translate(0.5,0.5)">
    <path
       style="opacity:1;fill:#2848a9;fill-opacity:1;stroke:none;stroke-opacity:1"
       fill="#8eafd0"
       d="m 555.5,1.5 c 2.982,0.46286 5.982,0.79619 9,1 0.667,0.33333 1.333,0.66667 2,1 2.007,2.33729 4.673,3.67063 8,4 1.799,3.1296 4.466,5.1296 8,6 1.694,1.0274 3.027,2.3608 4,4 0.25,2.174 1.25,3.8406 3,5 -0.073,1.5269 0.594,2.5269 2,3 -0.073,1.5269 0.594,2.5269 2,3 -0.446,2.5101 0.22,4.5101 2,6 -0.51,2.8878 0.156,5.2211 2,7 0,1 0,2 0,3 0,197.667 0,395.333 0,593 0,1 0,2 0,3 -0.617,0.111 -1.117,0.444 -1.5,1 -0.533,3.429 -1.367,6.762 -2.5,10 -0.333,1.333 -0.667,2.667 -1,4 -2.033,1.663 -3.866,3.663 -5.5,6 -0.483,0.948 -0.649,1.948 -0.5,3 -2,2.667 -4.333,5 -7,7 -2.767,0.37 -4.767,1.704 -6,4 -0.333,0 -0.667,0 -1,0 -2.065,0.453 -3.732,1.453 -5,3 -3.845,-0.212 -7.179,0.788 -10,3 -21.223,1.3 -42.556,1.967 -64,2 -20.333,-0.167 -40.667,-0.333 -61,-0.5 -0.744,-1.039 -1.744,-1.539 -3,-1.5 -0.111,-0.617 -0.444,-1.117 -1,-1.5 -3.612,-1.15 -7.278,-1.983 -11,-2.5 -0.473,-1.406 -1.473,-2.073 -3,-2 -0.667,0 -1,-0.333 -1,-1 -0.473,-1.406 -1.473,-2.073 -3,-2 -3.697,-4.775 -7.364,-9.441 -11,-14 0,-0.667 0,-1.333 0,-2 -3.574,-10.528 -3.908,-21.195 -1,-32 0.333,-0.667 0.667,-1.333 1,-2 2.431,-1.546 3.764,-3.879 4,-7 4.406,-4.078 8.739,-8.078 13,-12 4.764,-0.895 9.097,-2.562 13,-5 0.667,0 1.333,0 2,0 27.333,0 54.667,0 82,0 0,-28 0,-56 0,-84 -128.834,-0.333 -257.501,0 -386,1 -3.682,-0.165 -7.348,10e-4 -11,0.5 -2.153,0.099 -3.819,0.933 -5,2.5 -1.667,0.667 -3.333,1.333 -5,2 -2.198,-0.38 -3.865,0.287 -5,2 -2.5336,-0.241 -4.2002,0.759 -5,3 -2,0 -3,1 -3,3 -1,0 -2,0 -3,0 0,1 0,2 0,3 -1.5481,0.321 -2.2148,1.321 -2,3 -0.6667,1.667 -1.3333,3.333 -2,5 -1.3142,2.415 -1.9809,5.248 -2,8.5 0.1667,2.833 0.3333,5.667 0.5,8.5 0.2401,2.352 1.0735,4.352 2.5,6 1.6765,0.683 2.3432,2.017 2,4 -0.4689,2.893 0.5311,4.893 3,6 0.3333,0.667 0.6667,1.333 1,2 0.6355,2.295 1.9689,3.961 4,5 0.8382,0.342 1.1716,1.008 1,2 -0.131,0.739 0.0357,1.406 0.5,2 7.03,6.2 13.863,12.533 20.5,19 0.041,3.736 1.374,6.736 4,9 0.057,1.109 0.39,2.109 1,3 0,6.333 0,12.667 0,19 0.172,0.992 -0.162,1.658 -1,2 -2.185,3.713 -3.852,7.713 -5,12 -2.412,0.194 -3.412,1.527 -3,4 -2,1.333 -3.667,3 -5,5 0,0.667 -0.333,1 -1,1 -1.679,-0.215 -2.679,0.452 -3,2 -3.412,0.542 -6.412,1.875 -9,4 0,0.667 -0.3333,1 -1,1 -9.77,1.635 -19.4367,1.302 -29,-1 -2.0529,0.098 -3.7196,-0.569 -5,-2 -0.4731,-1.406 -1.4731,-2.073 -3,-2 -0.4731,-1.406 -1.4731,-2.073 -3,-2 -0.7702,-2.435 -2.4368,-3.769 -5,-4 -1.5615,-2.473 -3.5615,-4.473 -6,-6 -1.7393,-2.743 -4.0726,-4.743 -7,-6 -0.5695,-2.835 -2.2361,-4.501 -5,-5 0,-0.333 0,-0.667 0,-1 -0.8481,-3.388 -2.8481,-5.721 -6,-7 -0.8382,-0.342 -1.1716,-1.008 -1,-2 -0.4805,-3.334 -2.1472,-5.667 -5,-7 -0.3333,-0.667 -0.6667,-1.333 -1,-2 -0.4129,-3.838 -2.0795,-6.838 -5,-9 -0.3333,-0.667 -0.6667,-1.333 -1,-2 -3.1049,-8.551 -5.93826,-17.218 -8.5,-26 -0.38258,-0.556 -0.88258,-0.889 -1.5,-1 -0.80071,-1.542 -1.13404,-3.208 -1,-5 0.28472,-3.329 -0.38195,-6.329 -2,-9 -0.972937,-145.328 -1.306271,-290.661 -1,-436 1.63661,-5.427 2.63661,-11.093 3,-17 0,-0.333 0,-0.667 0,-1 2.73205,-5.873 4.73205,-12.2062 6,-19 0,-0.3333 0,-0.6667 0,-1 2.0587,-1.7604 3.392,-4.0938 4,-7 0.6667,-2 1.3333,-4 2,-6 0.8764,0.1309 1.5431,-0.2025 2,-1 4.16,-8.3234 8.8266,-16.3234 14,-24 8.4048,-9.7408 17.7381,-18.4074 28,-26 4.0712,-1.3615 7.4045,-3.6948 10,-7 3.7507,-0.9117 7.084,-2.5784 10,-5 5.2621,-1.0715 9.9288,-3.0715 14,-6 0.3333,0 0.6667,0 1,0 3.6939,-0.87262 7.361,-1.87262 11,-3 3.714,-0.09025 7.048,-1.09025 10,-3 0.333,0 0.667,0 1,0 6.29,-0.90539 12.623,-1.57206 19,-2 140.006,-1.325093 280.006,-1.325093 420,0 z m -414,84 c 123.667,0 247.333,0 371,0 0,114.667 0,229.333 0,344 -125.333,0 -250.667,0 -376,0 -5.362,-0.028 -10.695,0.306 -16,1 -3.36,0.116 -6.693,0.449 -10,1 -4.69,0.638 -9.356,1.471 -14,2.5 -0.556,0.383 -0.8893,0.883 -1,1.5 -0.6667,0 -1.3333,0 -2,0 -2.7666,0.358 -5.4333,1.025 -8,2 -0.3245,-102.689 0.0088,-205.355 1,-308 1.315,-3.657 2.6483,-7.324 4,-11 0.9918,-1.956 1.9918,-3.956 3,-6 0.6667,0 1,-0.333 1,-1 1.3897,-1.399 2.3897,-3.066 3,-5 1,-0.333 1.6667,-1 2,-2 2,-1.333 3.667,-3 5,-5 0.667,0 1,-0.3333 1,-1 1.73,-0.5256 3.064,-1.5256 4,-3 1.562,-0.2329 2.895,-0.8995 4,-2 4.406,-2.0158 8.739,-4.0158 13,-6 2.361,-0.1741 4.694,-0.5074 7,-1 2.667,-0.3333 5.333,-0.6667 8,-1 z"
       id="path3" />
  </g>
  <g
     id="g4"
     transform="translate(0.5,0.5)">
    <path
       style="opacity:1"
       fill="#5c5c5c"
       d="m 555.5,1.5 c 0,-0.33333 0,-0.666667 0,-1 3.329,-0.28472 6.329,0.381947 9,2 -3.018,-0.20381 -6.018,-0.53714 -9,-1 z"
       id="path4" />
  </g>
  <g
     id="g5"
     transform="translate(0.5,0.5)">
    <path
       style="opacity:1"
       fill="#a5a5a6"
       d="m 115.5,3.5 c -2.952,1.90975 -6.286,2.90975 -10,3 0,-0.33333 0,-0.66667 0,-1 3.228,-1.04556 6.561,-1.71223 10,-2 z"
       id="path5" />
  </g>
  <g
     id="g6"
     transform="translate(0.5,0.5)">
    <path
       style="opacity:1"
       fill="#838383"
       d="m 566.5,3.5 c 3.221,0.39612 5.888,1.72946 8,4 -3.327,-0.32937 -5.993,-1.66271 -8,-4 z"
       id="path6" />
  </g>
  <g
     id="g7"
     transform="translate(0.5,0.5)">
    <path
       style="opacity:1"
       fill="#6a6a6a"
       d="m 105.5,5.5 c 0,0.33333 0,0.66667 0,1 -3.639,1.12738 -7.3061,2.12738 -11,3 3.0531,-2.46797 6.72,-3.8013 11,-4 z"
       id="path7" />
  </g>
  <g
     id="g8"
     transform="translate(0.5,0.5)">
    <path
       style="opacity:1"
       fill="#838383"
       d="m 574.5,7.5 c 2.955,1.62232 5.622,3.6223 8,6 -3.534,-0.8704 -6.201,-2.8704 -8,-6 z"
       id="path8" />
  </g>
  <g
     id="g9"
     transform="translate(0.5,0.5)">
    <path
       style="opacity:1"
       fill="#898989"
       d="m 93.5,9.5 c -4.0712,2.9285 -8.7379,4.9285 -14,6 0.5577,-1.2899 1.5577,-2.1232 3,-2.5 3.6653,-1.2778 7.332,-2.4445 11,-3.5 z"
       id="path9" />
  </g>
  <g
     id="g10"
     transform="translate(0.5,0.5)">
    <path
       style="opacity:1"
       fill="#808080"
       d="m 79.5,15.5 c -2.916,2.4216 -6.2493,4.0883 -10,5 2.8677,-2.4125 6.201,-4.0792 10,-5 z"
       id="path10" />
  </g>
  <g
     id="g11"
     transform="translate(0.5,0.5)">
    <path
       style="opacity:1"
       fill="#696969"
       d="m 586.5,17.5 c 1.75,1.1594 2.75,2.826 3,5 -1.75,-1.1594 -2.75,-2.826 -3,-5 z"
       id="path11" />
  </g>
  <g
     id="g12"
     transform="translate(0.5,0.5)">
    <path
       style="opacity:1"
       fill="#878788"
       d="m 69.5,20.5 c -2.5955,3.3052 -5.9288,5.6385 -10,7 2.7329,-3.0465 6.0662,-5.3798 10,-7 z"
       id="path12" />
  </g>
  <g
     id="g13"
     transform="translate(0.5,0.5)">
    <path
       style="opacity:1"
       fill="#7b7b7b"
       d="m 589.5,22.5 c 1.406,0.4731 2.073,1.4731 2,3 -1.406,-0.4731 -2.073,-1.4731 -2,-3 z"
       id="path13" />
  </g>
  <g
     id="g14"
     transform="translate(0.5,0.5)">
    <path
       style="opacity:1"
       fill="#5d5d5d"
       d="m 591.5,25.5 c 1.406,0.4731 2.073,1.4731 2,3 -1.406,-0.4731 -2.073,-1.4731 -2,-3 z"
       id="path14" />
  </g>
  <g
     id="g15"
     transform="translate(0.5,0.5)">
    <path
       style="opacity:1"
       fill="#818181"
       d="m 593.5,28.5 c 1.574,1.6016 2.241,3.6016 2,6 -1.78,-1.4899 -2.446,-3.4899 -2,-6 z"
       id="path15" />
  </g>
  <g
     id="g16"
     transform="translate(0.5,0.5)">
    <path
       style="opacity:1"
       fill="#979797"
       d="m 595.5,34.5 c 1.112,2.0994 1.779,4.4327 2,7 -1.844,-1.7789 -2.51,-4.1122 -2,-7 z"
       id="path16" />
  </g>
  <g
     id="g17"
     transform="translate(0.5,0.5)">
    <path
       style="opacity:1"
       fill="#686868"
       d="m 59.5,27.5 c -10.2619,7.5926 -19.5952,16.2592 -28,26 7.0971,-11.0979 16.4304,-19.7646 28,-26 z"
       id="path17" />
  </g>
  <g
     id="g18"
     transform="translate(0.5,0.5)">
    <path
       style="opacity:1"
       fill="#707070"
       d="m 597.5,44.5 c 0.667,0.6667 1.333,1.3333 2,2 0,196.667 0,393.333 0,590 -0.667,0.333 -1.333,0.667 -2,1 0,-197.667 0,-395.333 0,-593 z"
       id="path18" />
  </g>
  <g
     id="g19"
     transform="translate(0.5,0.5)">
    <path
       style="opacity:1"
       fill="#818282"
       d="m 31.5,53.5 c -5.1734,7.6766 -9.84,15.6766 -14,24 -0.4569,0.7975 -1.1236,1.1309 -2,1 3.7927,-9.4313 9.126,-17.7646 16,-25 z"
       id="path19" />
  </g>
  <g
     id="g20"
     transform="translate(0.5,0.5)">
    <path
       style="opacity:1"
       fill="#595959"
       d="m 15.5,78.5 c -0.6667,2 -1.3333,4 -2,6 -0.6667,0.3333 -1.3333,0.6667 -2,1 0.5787,-2.8311 1.912,-5.1644 4,-7 z"
       id="path20" />
  </g>
  <g
     id="g21"
     transform="translate(0.5,0.5)">
    <path
       style="opacity:1"
       fill="#8c8c8c"
       d="m 141.5,84.5 c 0,0.3333 0,0.6667 0,1 -2.667,0.3333 -5.333,0.6667 -8,1 2.135,-1.869 4.802,-2.5356 8,-2 z"
       id="path21" />
  </g>
  <g
     id="g22"
     transform="translate(0.5,0.5)">
    <path
       style="opacity:0.071"
       fill="#474747"
       d="m 141.5,85.5 c 0,-0.3333 0,-0.6667 0,-1 124,0 248,0 372,0 0.333,115.168 0,230.168 -1,345 0,-114.667 0,-229.333 0,-344 -123.667,0 -247.333,0 -371,0 z"
       id="path22" />
  </g>
  <g
     id="g23"
     transform="translate(0.5,0.5)">
    <path
       style="opacity:1"
       fill="#9c9c9d"
       d="m 13.5,84.5 c -0.608,2.9062 -1.9413,5.2396 -4,7 0.6667,-2 1.3333,-4 2,-6 0.6667,-0.3333 1.3333,-0.6667 2,-1 z"
       id="path23" />
  </g>
  <g
     id="g24"
     transform="translate(0.5,0.5)">
    <path
       style="opacity:1"
       fill="#7a7a7a"
       d="m 126.5,87.5 c -4.261,1.9842 -8.594,3.9842 -13,6 0.622,-1.835 1.956,-3.0017 4,-3.5 2.932,-1.1449 5.932,-1.9782 9,-2.5 z"
       id="path24" />
  </g>
  <g
     id="g25"
     transform="translate(0.5,0.5)">
    <path
       style="opacity:1"
       fill="#777777"
       d="m 109.5,95.5 c -0.936,1.4744 -2.27,2.4744 -4,3 0.535,-1.9456 1.868,-2.9456 4,-3 z"
       id="path25" />
  </g>
  <g
     id="g26"
     transform="translate(0.5,0.5)">
    <path
       style="opacity:1"
       fill="#7a7a7a"
       d="m 104.5,99.5 c -1.333,2 -3,3.667 -5,5 0.3333,-3 2,-4.6667 5,-5 z"
       id="path26" />
  </g>
  <g
     id="g27"
     transform="translate(0.5,0.5)">
    <path
       style="opacity:1"
       fill="#848484"
       d="m 9.5,92.5 c -1.26795,6.7938 -3.26795,13.127 -6,19 0.71892,-5.093 1.88559,-10.093 3.5,-15 0.20041,-1.8197 1.03374,-3.153 2.5,-4 z"
       id="path27" />
  </g>
  <g
     id="g28"
     transform="translate(0.5,0.5)">
    <path
       style="opacity:1"
       fill="#707070"
       d="m 97.5,106.5 c -0.6103,1.934 -1.6103,3.601 -3,5 -0.2409,-2.534 0.7591,-4.2 3,-5 z"
       id="path28" />
  </g>
  <g
     id="g29"
     transform="translate(0.5,0.5)">
    <path
       style="opacity:1"
       fill="#777777"
       d="m 93.5,112.5 c -1.0082,2.044 -2.0082,4.044 -3,6 -0.4689,-2.893 0.5311,-4.893 3,-6 z"
       id="path29" />
  </g>
  <g
     id="g30"
     transform="translate(0.5,0.5)">
    <path
       style="opacity:1"
       fill="#6b6b6b"
       d="m 3.5,112.5 c -0.36339,5.907 -1.36339,11.573 -3,17 -0.049832,-5.052 0.450168,-10.052 1.5,-15 0.27842,-0.916 0.77842,-1.582 1.5,-2 z"
       id="path30" />
  </g>
  <g
     id="g31"
     transform="translate(0.5,0.5)">
    <path
       style="opacity:1"
       fill="#757575"
       d="m 86.5,129.5 c -0.9912,102.645 -1.3245,205.311 -1,308 -0.9994,-100.499 -1.3328,-201.165 -1,-302 -0.4746,-2.582 0.1921,-4.582 2,-6 z"
       id="path31" />
  </g>
  <g
     id="g32"
     transform="translate(0.5,0.5)">
    <path
       style="opacity:1"
       fill="#a6a6a6"
       d="m 84.5,135.5 c -0.3328,100.835 6e-4,201.501 1,302 2.5667,-0.975 5.2334,-1.642 8,-2 -0.2911,1.149 -1.1244,1.816 -2.5,2 -2.4621,0.659 -4.9621,0.993 -7.5,1 -0.3328,-101.168 6e-4,-202.168 1,-303 z"
       id="path32" />
  </g>
  <g
     id="g33"
     transform="translate(0.5,0.5)">
    <path
       style="opacity:1"
       fill="#a6a6a7"
       d="m 136.5,429.5 c -4.896,1.946 -10.229,2.613 -16,2 0,-0.333 0,-0.667 0,-1 5.305,-0.694 10.638,-1.028 16,-1 z"
       id="path33" />
  </g>
  <g
     id="g34"
     transform="translate(0.5,0.5)">
    <path
       style="opacity:1"
       fill="#939393"
       d="m 120.5,430.5 c 0,0.333 0,0.667 0,1 -4.157,0.949 -8.49,1.616 -13,2 1,-0.667 2,-1.333 3,-2 3.307,-0.551 6.64,-0.884 10,-1 z"
       id="path34" />
  </g>
  <g
     id="g35"
     transform="translate(0.5,0.5)">
    <path
       style="opacity:1"
       fill="#686868"
       d="m 110.5,431.5 c -1,0.667 -2,1.333 -3,2 -4,0.667 -8,1.333 -12,2 0.1107,-0.617 0.444,-1.117 1,-1.5 4.644,-1.029 9.31,-1.862 14,-2.5 z"
       id="path35" />
  </g>
  <g
     id="g36"
     transform="translate(0.5,0.5)">
    <path
       style="opacity:0.898"
       fill="#484848"
       d="m 127.5,515.5 c 128.499,-1 257.166,-1.333 386,-1 0,28 0,56 0,84 -27.333,0 -54.667,0 -82,0 26.828,-0.998 53.828,-1.331 81,-1 0,-27.333 0,-54.667 0,-82 -128.333,0 -256.667,0 -385,0 z"
       id="path36" />
  </g>
  <g
     id="g37"
     transform="translate(0.5,0.5)">
    <path
       style="opacity:1"
       fill="#7c7c7c"
       d="m 127.5,515.5 c -5.206,0.992 -10.539,1.992 -16,3 1.181,-1.567 2.847,-2.401 5,-2.5 3.652,-0.499 7.318,-0.665 11,-0.5 z"
       id="path37" />
  </g>
  <g
     id="g38"
     transform="translate(0.5,0.5)">
    <path
       style="opacity:1"
       fill="#5f5f5f"
       d="m 106.5,520.5 c -1.43,1.037 -3.097,1.704 -5,2 1.135,-1.713 2.802,-2.38 5,-2 z"
       id="path38" />
  </g>
  <g
     id="g39"
     transform="translate(0.5,0.5)">
    <path
       style="opacity:1"
       fill="#7b7b7b"
       d="m 101.5,522.5 c -1.465,1.237 -3.1316,2.237 -5,3 0.7998,-2.241 2.4664,-3.241 5,-3 z"
       id="path39" />
  </g>
  <g
     id="g40"
     transform="translate(0.5,0.5)">
    <path
       style="opacity:1"
       fill="#565656"
       d="m 96.5,525.5 c -0.6667,1.333 -1.6667,2.333 -3,3 0,-2 1,-3 3,-3 z"
       id="path40" />
  </g>
  <g
     id="g41"
     transform="translate(0.5,0.5)">
    <path
       style="opacity:1"
       fill="#787878"
       d="m 93.5,528.5 c -0.6667,1.333 -1.6667,2.333 -3,3 0,-1 0,-2 0,-3 1,0 2,0 3,0 z"
       id="path41" />
  </g>
  <g
     id="g42"
     transform="translate(0.5,0.5)">
    <path
       style="opacity:1"
       fill="#666666"
       d="m 90.5,531.5 c 0.073,1.527 -0.5937,2.527 -2,3 -0.2148,-1.679 0.4519,-2.679 2,-3 z"
       id="path42" />
  </g>
  <g
     id="g43"
     transform="translate(0.5,0.5)">
    <path
       style="opacity:1"
       fill="#8d8d8d"
       d="m -0.5,129.5 c 0.333333,0 0.666667,0 1,0 -0.306271,145.339 0.027063,290.672 1,436 -0.666667,-3 -1.333333,-6 -2,-9 0,-142.333 0,-284.667 0,-427 z"
       id="path43" />
  </g>
  <g
     id="g44"
     transform="translate(0.5,0.5)">
    <path
       style="opacity:1"
       fill="#868788"
       d="m 86.5,539.5 c -1.299,7.72 -0.9657,15.387 1,23 -1.4265,-1.648 -2.2599,-3.648 -2.5,-6 -0.1667,-2.833 -0.3333,-5.667 -0.5,-8.5 0.0191,-3.252 0.6858,-6.085 2,-8.5 z"
       id="path44" />
  </g>
  <g
     id="g45"
     transform="translate(0.5,0.5)">
    <path
       style="opacity:1"
       fill="#8d8e8f"
       d="m 89.5,566.5 c 1.5075,1.681 2.5075,3.681 3,6 -2.4689,-1.107 -3.4689,-3.107 -3,-6 z"
       id="path45" />
  </g>
  <g
     id="g46"
     transform="translate(0.5,0.5)">
    <path
       style="opacity:1"
       fill="#676767"
       d="m 1.5,565.5 c 1.61805,2.671 2.28472,5.671 2,9 -1.76548,-2.623 -2.43214,-5.623 -2,-9 z"
       id="path46" />
  </g>
  <g
     id="g47"
     transform="translate(0.5,0.5)">
    <path
       style="opacity:1"
       fill="#696969"
       d="m 93.5,574.5 c 2.043,1.079 3.3763,2.746 4,5 -2.0311,-1.039 -3.3645,-2.705 -4,-5 z"
       id="path47" />
  </g>
  <g
     id="g48"
     transform="translate(0.5,0.5)">
    <path
       style="opacity:1"
       fill="#9b9b9b"
       d="m 332.5,581.5 c 0,0.333 0,0.667 0,1 -54.375,-0.325 -108.709,0.009 -163,1 0,-0.333 0,-0.667 0,-1 0.763,-0.768 1.763,-1.268 3,-1.5 53.502,-0.832 106.835,-0.665 160,0.5 z"
       id="path48" />
  </g>
  <g
     id="g49"
     transform="translate(0.5,0.5)">
    <path
       style="opacity:1"
       fill="#6f6f6f"
       d="m 332.5,582.5 c 0,-0.333 0,-0.667 0,-1 2.198,-0.38 3.865,0.287 5,2 -1.617,-0.538 -3.284,-0.871 -5,-1 z"
       id="path49" />
  </g>
  <g
     id="g50"
     style="fill:#2848a9;fill-opacity:1;stroke:none;stroke-opacity:1"
     transform="translate(0.5,0.5)">
    <path
       style="opacity:1;fill:#2848a9;fill-opacity:1;stroke:none;stroke-opacity:1"
       fill="#8eafd0"
       d="m 332.5,582.5 c 1.716,0.129 3.383,0.462 5,1 0.992,-0.172 1.658,0.162 2,1 0.58,2.249 1.913,3.915 4,5 -0.329,2.728 0.337,5.062 2,7 0,56.667 0,113.333 0,170 -1.431,1.28 -2.098,2.947 -2,5 0,0.667 -0.333,1 -1,1 -1.842,0.223 -3.675,0.557 -5.5,1 -2.708,-0.609 -5.208,-1.609 -7.5,-3 -1.904,-0.238 -3.238,-1.238 -4,-3 -0.768,-3.062 -2.768,-4.728 -6,-5 -0.473,-1.406 -1.473,-2.073 -3,-2 -1.194,-0.772 -2.194,-1.772 -3,-3 -1.085,-2.087 -2.751,-3.42 -5,-4 -1.085,-2.087 -2.751,-3.42 -5,-4 -1.498,-3.017 -3.831,-5.017 -7,-6 -1.085,-2.087 -2.751,-3.42 -5,-4 -1.411,-2.414 -3.411,-4.081 -6,-5 -1.411,-2.414 -3.411,-4.081 -6,-5 -0.473,-1.406 -1.473,-2.073 -3,-2 -1.739,-2.743 -4.073,-4.743 -7,-6 -1.411,-2.414 -3.411,-4.081 -6,-5 -1.107,-2.469 -3.107,-3.469 -6,-3 -4.048,-0.105 -8.048,0.228 -12,1 -1.679,-0.215 -2.679,0.452 -3,2 -1.642,1.303 -3.309,2.636 -5,4 -2.473,-0.412 -3.806,0.588 -4,3 -0.333,1 -1,1.667 -2,2 -2.119,-0.032 -3.452,0.968 -4,3 -0.333,1 -1,1.667 -2,2 -2.119,-0.032 -3.452,0.968 -4,3 -1.784,1.867 -3.784,3.534 -6,5 -2.867,-0.131 -4.533,1.203 -5,4 -2.132,0.054 -3.465,1.054 -4,3 -0.333,1 -1,1.667 -2,2 -1.904,0.238 -3.238,1.238 -4,3 -0.667,1.333 -1.667,2.333 -3,3 -1.904,0.238 -3.238,1.238 -4,3 0,0.667 -0.333,1 -1,1 -1.679,-0.215 -2.679,0.452 -3,2 -0.667,1.333 -1.667,2.333 -3,3 -1.679,-0.215 -2.679,0.452 -3,2 0,0.667 -0.333,1 -1,1 -1.175,-0.219 -2.175,0.114 -3,1 -1.326,1.142 -2.326,2.476 -3,4 -1.295,0.988 -2.628,1.988 -4,3 -2.779,0.221 -5.446,-0.112 -8,-1 -0.622,-1.127 -1.455,-2.127 -2.5,-3 -0.5,-58.332 -0.667,-116.666 -0.5,-175 1.097,-4.77 3.763,-8.436 8,-11 54.291,-0.991 108.625,-1.325 163,-1 z"
       id="path50" />
  </g>
  <g
     id="g51"
     transform="translate(0.5,0.5)">
    <path
       style="opacity:1"
       fill="#7d7d7d"
       d="m 4.5,579.5 c 0.61742,0.111 1.11742,0.444 1.5,1 2.56174,8.782 5.3951,17.449 8.5,26 -4.69394,-8.408 -8.02728,-17.408 -10,-27 z"
       id="path51" />
  </g>
  <g
     id="g52"
     transform="translate(0.5,0.5)">
    <path
       style="opacity:1"
       fill="#757575"
       d="m 339.5,584.5 c 2.087,1.085 3.42,2.751 4,5 -2.087,-1.085 -3.42,-2.751 -4,-5 z"
       id="path52" />
  </g>
  <g
     id="g53"
     transform="translate(0.5,0.5)">
    <path
       style="opacity:1"
       fill="#8d8e8e"
       d="m 169.5,582.5 c 0,0.333 0,0.667 0,1 -4.237,2.564 -6.903,6.23 -8,11 -0.333,0 -0.667,0 -1,0 0.703,-5.706 3.703,-9.706 9,-12 z"
       id="path53" />
  </g>
  <g
     id="g54"
     transform="translate(0.5,0.5)">
    <path
       style="opacity:1"
       fill="#868686"
       d="m 98.5,581.5 c 4.492,4.075 9.158,7.908 14,11.5 2.576,3.063 4.909,6.229 7,9.5 -6.637,-6.467 -13.47,-12.8 -20.5,-19 -0.4643,-0.594 -0.631,-1.261 -0.5,-2 z"
       id="path54" />
  </g>
  <g
     id="g55"
     transform="translate(0.5,0.5)">
    <path
       style="opacity:1"
       fill="#8d8e8e"
       d="m 343.5,589.5 c 1.424,2.015 2.09,4.348 2,7 -1.663,-1.938 -2.329,-4.272 -2,-7 z"
       id="path55" />
  </g>
  <g
     id="g56"
     transform="translate(0.5,0.5)">
    <path
       style="opacity:1"
       fill="#a7a8aa"
       d="m 160.5,594.5 c 0.333,0 0.667,0 1,0 -0.167,58.334 0,116.668 0.5,175 1.045,0.873 1.878,1.873 2.5,3 -0.333,0 -0.667,0 -1,0 -1.673,-0.843 -2.84,-2.176 -3.5,-4 -0.832,-58.168 -0.665,-116.168 0.5,-174 z"
       id="path56" />
  </g>
  <g
     id="g57"
     transform="translate(0.5,0.5)">
    <path
       style="opacity:1"
       fill="#818181"
       d="m 429.5,598.5 c -3.903,2.438 -8.236,4.105 -13,5 3.703,-3.017 8.036,-4.684 13,-5 z"
       id="path57" />
  </g>
  <g
     id="g58"
     transform="translate(0.5,0.5)">
    <path
       style="opacity:1"
       fill="#8f9091"
       d="m 119.5,602.5 c 2.092,2.588 3.425,5.588 4,9 -2.626,-2.264 -3.959,-5.264 -4,-9 z"
       id="path58" />
  </g>
  <g
     id="g59"
     transform="translate(0.5,0.5)">
    <path
       style="opacity:1"
       fill="#717171"
       d="m 416.5,603.5 c -4.261,3.922 -8.594,7.922 -13,12 3.054,-5.387 7.387,-9.387 13,-12 z"
       id="path59" />
  </g>
  <g
     id="g60"
     transform="translate(0.5,0.5)">
    <path
       style="opacity:1"
       fill="#7e7e7e"
       d="m 15.5,608.5 c 2.9205,2.162 4.5871,5.162 5,9 -2.4257,-2.513 -4.0924,-5.513 -5,-9 z"
       id="path60" />
  </g>
  <g
     id="g61"
     transform="translate(0.5,0.5)">
    <path
       style="opacity:1"
       fill="#909090"
       d="m 403.5,615.5 c -0.236,3.121 -1.569,5.454 -4,7 0.579,-2.831 1.912,-5.164 4,-7 z"
       id="path61" />
  </g>
  <g
     id="g62"
     transform="translate(0.5,0.5)">
    <path
       style="opacity:1"
       fill="#7e7e7e"
       d="m 21.5,619.5 c 2.8528,1.333 4.5195,3.666 5,7 -2.3901,-1.767 -4.0568,-4.1 -5,-7 z"
       id="path62" />
  </g>
  <g
     id="g63"
     transform="translate(0.5,0.5)">
    <path
       style="opacity:1"
       fill="#555555"
       d="m 124.5,614.5 c 0.736,3.195 1.403,6.529 2,10 -0.589,3.14 -1.256,6.14 -2,9 0,-6.333 0,-12.667 0,-19 z"
       id="path63" />
  </g>
  <g
     id="g64"
     transform="translate(0.5,0.5)">
    <path
       style="opacity:1"
       fill="#808080"
       d="m 27.5,628.5 c 3.1519,1.279 5.1519,3.612 6,7 -2.7195,-1.719 -4.7195,-4.053 -6,-7 z"
       id="path64" />
  </g>
  <g
     id="g65"
     transform="translate(0.5,0.5)">
    <path
       style="opacity:1"
       fill="#7d7d7d"
       d="m 398.5,624.5 c -2.908,10.805 -2.574,21.472 1,32 -1.431,-0.381 -2.264,-1.381 -2.5,-3 -1.515,-7.267 -1.848,-14.601 -1,-22 0.156,-2.691 0.989,-5.024 2.5,-7 z"
       id="path65" />
  </g>
  <g
     id="g66"
     transform="translate(0.5,0.5)">
    <path
       style="opacity:1"
       fill="#787878"
       d="m 33.5,636.5 c 2.7639,0.499 4.4305,2.165 5,5 -2,-1.333 -3.6667,-3 -5,-5 z"
       id="path66" />
  </g>
  <g
     id="g67"
     transform="translate(0.5,0.5)">
    <path
       style="opacity:1"
       fill="#959595"
       d="m 38.5,641.5 c 2.9274,1.257 5.2607,3.257 7,6 -0.3333,0 -0.6667,0 -1,0 -2.3333,-1.667 -4.3333,-3.667 -6,-6 z"
       id="path67" />
  </g>
  <g
     id="g68"
     transform="translate(0.5,0.5)">
    <path
       style="opacity:1"
       fill="#7d7d7d"
       d="m 123.5,635.5 c -0.521,4.587 -2.188,8.587 -5,12 1.148,-4.287 2.815,-8.287 5,-12 z"
       id="path68" />
  </g>
  <g
     id="g69"
     transform="translate(0.5,0.5)">
    <path
       style="opacity:1"
       fill="#8d8d8d"
       d="m 597.5,640.5 c -0.242,3.979 -1.242,7.646 -3,11 -0.333,0 -0.667,0 -1,0 1.133,-3.238 1.967,-6.571 2.5,-10 0.383,-0.556 0.883,-0.889 1.5,-1 z"
       id="path69" />
  </g>
  <g
     id="g70"
     transform="translate(0.5,0.5)">
    <path
       style="opacity:1"
       fill="#7e7f7f"
       d="m 118.5,647.5 c -0.526,1.73 -1.526,3.064 -3,4 -0.412,-2.473 0.588,-3.806 3,-4 z"
       id="path70" />
  </g>
  <g
     id="g71"
     transform="translate(0.5,0.5)">
    <path
       style="opacity:1"
       fill="#686868"
       d="m 44.5,647.5 c 0.3333,0 0.6667,0 1,0 2.4385,1.527 4.4385,3.527 6,6 -2.9274,-1.257 -5.2607,-3.257 -7,-6 z"
       id="path71" />
  </g>
  <g
     id="g72"
     transform="translate(0.5,0.5)">
    <path
       style="opacity:1"
       fill="#606060"
       d="m 115.5,651.5 c -0.667,2.667 -2.333,4.333 -5,5 1.333,-2 3,-3.667 5,-5 z"
       id="path72" />
  </g>
  <g
     id="g73"
     transform="translate(0.5,0.5)">
    <path
       style="opacity:1"
       fill="#535353"
       d="m 593.5,651.5 c 0.333,0 0.667,0 1,0 0.271,1.88 -0.396,3.213 -2,4 0.333,-1.333 0.667,-2.667 1,-4 z"
       id="path73" />
  </g>
  <g
     id="g74"
     transform="translate(0.5,0.5)">
    <path
       style="opacity:1"
       fill="#6f6f6f"
       d="m 51.5,653.5 c 2.5632,0.231 4.2298,1.565 5,4 -2.2488,-0.58 -3.9154,-1.913 -5,-4 z"
       id="path74" />
  </g>
  <g
     id="g75"
     transform="translate(0.5,0.5)">
    <path
       style="opacity:1"
       fill="#6c6c6c"
       d="m 56.5,657.5 c 1.5269,-0.073 2.5269,0.594 3,2 -1.5269,0.073 -2.5269,-0.594 -3,-2 z"
       id="path75" />
  </g>
  <g
     id="g76"
     transform="translate(0.5,0.5)">
    <path
       style="opacity:0.757"
       fill="#5f5f5f"
       d="m 109.5,657.5 c -0.473,1.406 -1.473,2.073 -3,2 0.321,-1.548 1.321,-2.215 3,-2 z"
       id="path76" />
  </g>
  <g
     id="g77"
     transform="translate(0.5,0.5)">
    <path
       style="opacity:1"
       fill="#808080"
       d="m 106.5,659.5 c -2.398,2.474 -5.398,3.808 -9,4 2.588,-2.125 5.588,-3.458 9,-4 z"
       id="path77" />
  </g>
  <g
     id="g78"
     transform="translate(0.5,0.5)">
    <path
       style="opacity:1"
       fill="#7c7c7c"
       d="m 399.5,658.5 c 3.636,4.559 7.303,9.225 11,14 -5.079,-3.459 -8.746,-8.126 -11,-14 z"
       id="path78" />
  </g>
  <g
     id="g79"
     transform="translate(0.5,0.5)">
    <path
       style="opacity:1"
       fill="#696969"
       d="m 59.5,659.5 c 1.5269,-0.073 2.5269,0.594 3,2 -1.5269,0.073 -2.5269,-0.594 -3,-2 z"
       id="path79" />
  </g>
  <g
     id="g80"
     transform="translate(0.5,0.5)">
    <path
       style="opacity:1"
       fill="#757575"
       d="m 592.5,655.5 c -1.269,3.554 -3.269,6.554 -6,9 -0.149,-1.052 0.017,-2.052 0.5,-3 1.634,-2.337 3.467,-4.337 5.5,-6 z"
       id="path80" />
  </g>
  <g
     id="g81"
     transform="translate(0.5,0.5)">
    <path
       style="opacity:1"
       fill="#717172"
       d="m 67.5,663.5 c 9.5633,2.302 19.23,2.635 29,1 -9.1142,3.793 -18.4476,3.959 -28,0.5 -0.556,-0.383 -0.8893,-0.883 -1,-1.5 z"
       id="path81" />
  </g>
  <g
     id="g82"
     transform="translate(0.5,0.5)">
    <path
       style="opacity:1"
       fill="#797979"
       d="m 410.5,672.5 c 1.527,-0.073 2.527,0.594 3,2 -1.527,0.073 -2.527,-0.594 -3,-2 z"
       id="path82" />
  </g>
  <g
     id="g83"
     transform="translate(0.5,0.5)">
    <path
       style="opacity:1"
       fill="#757575"
       d="m 579.5,671.5 c -1.618,1.816 -3.618,3.149 -6,4 1.233,-2.296 3.233,-3.63 6,-4 z"
       id="path83" />
  </g>
  <g
     id="g84"
     transform="translate(0.5,0.5)">
    <path
       style="opacity:1"
       fill="#545454"
       d="m 414.5,675.5 c 1.527,-0.073 2.527,0.594 3,2 -1.527,0.073 -2.527,-0.594 -3,-2 z"
       id="path84" />
  </g>
  <g
     id="g85"
     transform="translate(0.5,0.5)">
    <path
       style="opacity:1"
       fill="#8e8e8f"
       d="m 417.5,677.5 c 3.722,0.517 7.388,1.35 11,2.5 0.556,0.383 0.889,0.883 1,1.5 -4.415,-0.361 -8.415,-1.694 -12,-4 z"
       id="path85" />
  </g>
  <g
     id="g86"
     transform="translate(0.5,0.5)">
    <path
       style="opacity:1"
       fill="#5f5f5f"
       d="m 572.5,675.5 c -0.8,2.241 -2.466,3.241 -5,3 1.268,-1.547 2.935,-2.547 5,-3 z"
       id="path86" />
  </g>
  <g
     id="g87"
     transform="translate(0.5,0.5)">
    <path
       style="opacity:1"
       fill="#848484"
       d="m 567.5,678.5 c -2.995,1.743 -6.329,2.743 -10,3 2.821,-2.212 6.155,-3.212 10,-3 z"
       id="path87" />
  </g>
  <g
     id="g88"
     transform="translate(0.5,0.5)">
    <path
       style="opacity:1"
       fill="#848484"
       d="m 257.5,713.5 c 2.893,-0.469 4.893,0.531 6,3 -2.044,-1.008 -4.044,-2.008 -6,-3 z"
       id="path88" />
  </g>
  <g
     id="g89"
     transform="translate(0.5,0.5)">
    <path
       style="opacity:1"
       fill="#6f6f6f"
       d="m 245.5,714.5 c -0.79,0.901 -1.79,1.568 -3,2 0.321,-1.548 1.321,-2.215 3,-2 z"
       id="path89" />
  </g>
  <g
     id="g90"
     transform="translate(0.5,0.5)">
    <path
       style="opacity:1"
       fill="#737373"
       d="m 263.5,716.5 c 2.589,0.919 4.589,2.586 6,5 -2.589,-0.919 -4.589,-2.586 -6,-5 z"
       id="path90" />
  </g>
  <g
     id="g91"
     transform="translate(0.5,0.5)">
    <path
       style="opacity:1"
       fill="#818181"
       d="m 237.5,720.5 c -0.762,1.762 -2.096,2.762 -4,3 0.194,-2.412 1.527,-3.412 4,-3 z"
       id="path91" />
  </g>
  <g
     id="g92"
     transform="translate(0.5,0.5)">
    <path
       style="opacity:1"
       fill="#656565"
       d="m 269.5,721.5 c 2.927,1.257 5.261,3.257 7,6 -2.927,-1.257 -5.261,-3.257 -7,-6 z"
       id="path92" />
  </g>
  <g
     id="g93"
     transform="translate(0.5,0.5)">
    <path
       style="opacity:1"
       fill="#6f6f6f"
       d="m 231.5,725.5 c -0.762,1.762 -2.096,2.762 -4,3 0.548,-2.032 1.881,-3.032 4,-3 z"
       id="path93" />
  </g>
  <g
     id="g94"
     transform="translate(0.5,0.5)">
    <path
       style="opacity:1"
       fill="#757575"
       d="m 276.5,727.5 c 1.527,-0.073 2.527,0.594 3,2 -1.527,0.073 -2.527,-0.594 -3,-2 z"
       id="path94" />
  </g>
  <g
     id="g95"
     transform="translate(0.5,0.5)">
    <path
       style="opacity:1"
       fill="#6c6c6c"
       d="m 225.5,730.5 c -0.762,1.762 -2.096,2.762 -4,3 0.548,-2.032 1.881,-3.032 4,-3 z"
       id="path95" />
  </g>
  <g
     id="g96"
     transform="translate(0.5,0.5)">
    <path
       style="opacity:1"
       fill="#7d7d7d"
       d="m 279.5,729.5 c 2.589,0.919 4.589,2.586 6,5 -2.589,-0.919 -4.589,-2.586 -6,-5 z"
       id="path96" />
  </g>
  <g
     id="g97"
     transform="translate(0.5,0.5)">
    <path
       style="opacity:1"
       fill="#707070"
       d="m 285.5,734.5 c 2.589,0.919 4.589,2.586 6,5 -2.589,-0.919 -4.589,-2.586 -6,-5 z"
       id="path97" />
  </g>
  <g
     id="g98"
     transform="translate(0.5,0.5)">
    <path
       style="opacity:1"
       fill="#787878"
       d="m 291.5,739.5 c 2.249,0.58 3.915,1.913 5,4 -2.249,-0.58 -3.915,-1.913 -5,-4 z"
       id="path98" />
  </g>
  <g
     id="g99"
     transform="translate(0.5,0.5)">
    <path
       style="opacity:1"
       fill="#939393"
       d="m 215.5,738.5 c -1.642,1.303 -3.309,2.636 -5,4 0.467,-2.797 2.133,-4.131 5,-4 z"
       id="path99" />
  </g>
  <g
     id="g100"
     transform="translate(0.5,0.5)">
    <path
       style="opacity:1"
       fill="#7b7b7b"
       d="m 210.5,742.5 c -0.762,1.762 -2.096,2.762 -4,3 0.535,-1.946 1.868,-2.946 4,-3 z"
       id="path100" />
  </g>
  <g
     id="g101"
     transform="translate(0.5,0.5)">
    <path
       style="opacity:1"
       fill="#6e6e6f"
       d="m 296.5,743.5 c 3.169,0.983 5.502,2.983 7,6 -2.927,-1.257 -5.261,-3.257 -7,-6 z"
       id="path101" />
  </g>
  <g
     id="g102"
     transform="translate(0.5,0.5)">
    <path
       style="opacity:1"
       fill="#585858"
       d="m 204.5,747.5 c -0.762,1.762 -2.096,2.762 -4,3 0.762,-1.762 2.096,-2.762 4,-3 z"
       id="path102" />
  </g>
  <g
     id="g103"
     transform="translate(0.5,0.5)">
    <path
       style="opacity:1"
       fill="#6b6b6b"
       d="m 303.5,749.5 c 2.249,0.58 3.915,1.913 5,4 -2.249,-0.58 -3.915,-1.913 -5,-4 z"
       id="path103" />
  </g>
  <g
     id="g104"
     transform="translate(0.5,0.5)">
    <path
       style="opacity:1"
       fill="#747474"
       d="m 308.5,753.5 c 2.249,0.58 3.915,1.913 5,4 -2.249,-0.58 -3.915,-1.913 -5,-4 z"
       id="path104" />
  </g>
  <g
     id="g105"
     transform="translate(0.5,0.5)">
    <path
       style="opacity:0.208"
       fill="#4c4c4c"
       d="m 197.5,753.5 c -0.762,1.762 -2.096,2.762 -4,3 0.762,-1.762 2.096,-2.762 4,-3 z"
       id="path105" />
  </g>
  <g
     id="g106"
     transform="translate(0.5,0.5)">
    <path
       style="opacity:1"
       fill="#848484"
       d="m 192.5,757.5 c -0.79,0.901 -1.79,1.568 -3,2 0.321,-1.548 1.321,-2.215 3,-2 z"
       id="path106" />
  </g>
  <g
     id="g107"
     transform="translate(0.5,0.5)">
    <path
       style="opacity:1"
       fill="#606060"
       d="m 316.5,760.5 c 1.527,-0.073 2.527,0.594 3,2 -1.527,0.073 -2.527,-0.594 -3,-2 z"
       id="path107" />
  </g>
  <g
     id="g108"
     transform="translate(0.5,0.5)">
    <path
       style="opacity:1"
       fill="#747474"
       d="m 186.5,762.5 c -0.473,1.406 -1.473,2.073 -3,2 0.321,-1.548 1.321,-2.215 3,-2 z"
       id="path108" />
  </g>
  <g
     id="g109"
     transform="translate(0.5,0.5)">
    <path
       style="opacity:1"
       fill="#909295"
       d="m 319.5,762.5 c 3.232,0.272 5.232,1.938 6,5 -1.981,-1.644 -3.981,-3.31 -6,-5 z"
       id="path109" />
  </g>
  <g
     id="g110"
     transform="translate(0.5,0.5)">
    <path
       style="opacity:1"
       fill="#6f6f6f"
       d="m 182.5,765.5 c -1.391,2.39 -3.391,4.057 -6,5 0.674,-1.524 1.674,-2.858 3,-4 0.825,-0.886 1.825,-1.219 3,-1 z"
       id="path110" />
  </g>
  <g
     id="g111"
     transform="translate(0.5,0.5)">
    <path
       style="opacity:1"
       fill="#898989"
       d="m 345.5,766.5 c 0.098,2.053 -0.569,3.72 -2,5 -0.098,-2.053 0.569,-3.72 2,-5 z"
       id="path111" />
  </g>
  <g
     id="g112"
     transform="translate(0.5,0.5)">
    <path
       style="opacity:1"
       fill="#686868"
       d="m 163.5,772.5 c 0.333,0 0.667,0 1,0 2.554,0.888 5.221,1.221 8,1 0,0.333 0,0.667 0,1 -2.667,0 -5.333,0 -8,0 -0.333,-0.667 -0.667,-1.333 -1,-2 z"
       id="path112" />
  </g>
  <g
     id="g113"
     transform="translate(0.5,0.5)">
    <path
       style="opacity:1"
       fill="#717171"
       d="m 329.5,770.5 c 2.292,1.391 4.792,2.391 7.5,3 1.825,-0.443 3.658,-0.777 5.5,-1 -0.667,0.667 -1.333,1.333 -2,2 -2.667,0 -5.333,0 -8,0 -1,-1.333 -2,-2.667 -3,-4 z"
       id="path113" />
  </g>
</svg>
