<?xml version="1.0" encoding="UTF-8" standalone="no"?>
<!-- Created with Inkscape (http://www.inkscape.org/) -->

<svg
   width="135.46666mm"
   height="135.46667mm"
   viewBox="0 0 135.46666 135.46667"
   version="1.1"
   id="svg1"
   xml:space="preserve"
   inkscape:export-filename="icon-light-stackoverflow.svg"
   inkscape:export-xdpi="96"
   inkscape:export-ydpi="96"
   xmlns:inkscape="http://www.inkscape.org/namespaces/inkscape"
   xmlns:sodipodi="http://sodipodi.sourceforge.net/DTD/sodipodi-0.dtd"
   xmlns="http://www.w3.org/2000/svg"
   xmlns:svg="http://www.w3.org/2000/svg"><sodipodi:namedview
     id="namedview1"
     pagecolor="#505050"
     bordercolor="#ffffff"
     borderopacity="1"
     inkscape:showpageshadow="0"
     inkscape:pageopacity="0"
     inkscape:pagecheckerboard="1"
     inkscape:deskcolor="#505050"
     inkscape:document-units="mm" /><defs
     id="defs1" /><g
     inkscape:label="Layer 1"
     inkscape:groupmode="layer"
     id="layer1"
     transform="translate(82.04645,-181.26814)"><g
       style="clip-rule:evenodd;fill:#2848a9;fill-opacity:1;fill-rule:evenodd;image-rendering:optimizeQuality;shape-rendering:geometricPrecision;text-rendering:geometricPrecision"
       id="g7"
       transform="matrix(0.26458333,0,0,0.26458333,-81.914153,181.40043)"><path
         fill="#8baed1"
         d="m 232.5,-0.5 c 15.333,0 30.667,0 46,0 99.77,12.9476 170.937,64.9476 213.5,156 10.135,24.877 16.635,50.543 19.5,77 0,15.333 0,30.667 0,46 -10.888,89.643 -55.221,157.143 -133,202.5 -31.471,16.695 -64.804,26.861 -100,30.5 -15,0 -30,0 -45,0 C 133.231,498.958 61.7312,446.958 19,355.5 8.86366,330.62 2.36366,304.953 -0.5,278.5 c 0,-15.333 0,-30.667 0,-46 C 12.4494,132.728 64.4494,61.5615 155.5,19 180.377,8.86452 206.043,2.36452 232.5,-0.5 Z m 12,32 c 88.447,-0.5403 156.281,36.1264 203.5,110 31.428,55.6 38.761,114.267 22,176 -22.774,71.774 -69.274,121.274 -139.5,148.5 -4.241,1.457 -8.574,1.791 -13,1 -2.5,-1.167 -4.333,-3 -5.5,-5.5 -0.094,-27.023 -0.761,-54.023 -2,-81 -1.596,-9.983 -5.763,-18.649 -12.5,-26 74.693,-9.022 108.193,-51.022 100.5,-126 -3.017,-17.197 -10.184,-32.364 -21.5,-45.5 5.821,-19.411 4.988,-38.578 -2.5,-57.5 -3.183,-2.023 -6.683,-2.523 -10.5,-1.5 -6.537,0.884 -12.87,2.551 -19,5 -11.322,5.326 -22.322,11.16 -33,17.5 -37.174,-10.651 -74.34,-10.651 -111.5,0 -14.399,-9.448 -29.899,-16.615 -46.5,-21.5 -4.955,-1.218 -9.955,-1.551 -15,-1 -4.09,7.607 -6.59,15.774 -7.5,24.5 -1.393,11.815 -0.226,23.315 3.5,34.5 -19.421,23.387 -26.587,50.221 -21.5,80.5 5.064,47.399 30.897,76.233 77.5,86.5 7.673,1.501 15.34,3.001 23,4.5 -7.213,8.594 -11.88,18.428 -14,29.5 -30.005,12.002 -52.505,3.835 -67.5,-24.5 -9.471,-12.487 -21.971,-17.987 -37.5,-16.5 -3.6899,0.69 -4.8566,2.857 -3.5,6.5 7.8598,5.956 15.193,12.623 22,20 5.857,9.714 11.191,19.714 16,30 9.508,12.177 22.008,19.344 37.5,21.5 11.071,0.83 22.071,0.33 33,-1.5 0.167,14.004 0,28.004 -0.5,42 -3.732,5.546 -8.899,7.379 -15.5,5.5 C 111.762,440.262 64.2616,390.428 41,317.5 18.896,227.386 41.396,150.553 108.5,87 147.762,53.743 193.095,35.243 244.5,31.5 Z"
         id="path1"
         style="fill:#2848a9;fill-opacity:1" /></g></g></svg>
