<?xml version="1.0" encoding="UTF-8" standalone="no"?>
<!-- Created with Inkscape (http://www.inkscape.org/) -->

<svg
   width="113.24166mm"
   height="135.46667mm"
   viewBox="0 0 113.24166 135.46667"
   version="1.1"
   id="svg1"
   xml:space="preserve"
   inkscape:export-filename="icon-light-email.svg"
   inkscape:export-xdpi="96"
   inkscape:export-ydpi="96"
   xmlns:inkscape="http://www.inkscape.org/namespaces/inkscape"
   xmlns:sodipodi="http://sodipodi.sourceforge.net/DTD/sodipodi-0.dtd"
   xmlns="http://www.w3.org/2000/svg"
   xmlns:svg="http://www.w3.org/2000/svg"><sodipodi:namedview
     id="namedview1"
     pagecolor="#505050"
     bordercolor="#ffffff"
     borderopacity="1"
     inkscape:showpageshadow="0"
     inkscape:pageopacity="0"
     inkscape:pagecheckerboard="1"
     inkscape:deskcolor="#505050"
     inkscape:document-units="mm" /><defs
     id="defs1" /><g
     inkscape:label="Layer 1"
     inkscape:groupmode="layer"
     id="layer1"
     transform="translate(70.933946,-181.26814)"><g
       style="clip-rule:evenodd;fill:#2848a9;fill-opacity:1;fill-rule:evenodd;image-rendering:optimizeQuality;shape-rendering:geometricPrecision;text-rendering:geometricPrecision"
       id="g7"
       transform="matrix(0.26458333,0,0,0.26458333,-70.801653,181.40043)"><g
         id="g1"
         style="fill:#2848a9;fill-opacity:1"><path
           style="opacity:1;fill:#2848a9;fill-opacity:1"
           fill="#8cafd1"
           d="m 290.5,-0.5 c 1,0 2,0 3,0 44.312,60.9715 88.979,121.638 134,182 0,0.667 0,1.333 0,2 -11.79,8.617 -23.457,17.45 -35,26.5 -1.135,0.749 -2.135,0.583 -3,-0.5 C 345.026,148.526 300.36,87.6929 255.5,27 c 11.853,-9.0304 23.52,-18.19708 35,-27.5 z"
           id="path1" /></g><g
         id="g2"
         style="fill:#2848a9;fill-opacity:1"><path
           style="opacity:1;fill:#2848a9;fill-opacity:1"
           fill="#8cafd1"
           d="m 208.5,71.5 c 57.647,48.644 115.314,97.31 173,146 1.083,0.865 1.249,1.865 0.5,3 -9.167,11.167 -18.333,22.333 -27.5,33.5 -1.779,-0.044 -3.445,-0.711 -5,-2 C 293.612,203.811 237.446,155.978 181,108.5 c -0.667,-1 -0.667,-2 0,-3 9.38,-11.2076 18.546,-22.5409 27.5,-34 z"
           id="path2" /></g><g
         id="g3"
         style="fill:#2848a9;fill-opacity:1"><path
           style="opacity:1;fill:#2848a9;fill-opacity:1"
           fill="#8cafd1"
           d="m 141.5,167.5 c 68.646,31.154 136.98,63.154 205,96 0.333,0.333 0.667,0.667 1,1 -6.243,14.151 -12.743,28.151 -19.5,42 -67.879,-32.022 -135.712,-64.189 -203.5,-96.5 -0.457,-0.414 -0.791,-0.914 -1,-1.5 6.287,-13.571 12.287,-27.238 18,-41 z"
           id="path3" /></g><g
         id="g4"
         style="fill:#2848a9;fill-opacity:1"><path
           style="opacity:1;fill:#2848a9;fill-opacity:1"
           fill="#8cafd1"
           d="m 103.5,270.5 c 74.091,15.618 148.091,31.618 222,48 -3.386,14.928 -6.386,29.928 -9,45 -73.319,-15.496 -146.653,-30.996 -220,-46.5 -0.928,-0.388 -1.5946,-1.055 -2,-2 3.1944,-14.806 6.194,-29.639 9,-44.5 z"
           id="path4" /></g><g
         id="g5"
         style="fill:#2848a9;fill-opacity:1"><path
           style="opacity:1;fill:#2848a9;fill-opacity:1"
           fill="#8cafd1"
           d="m -0.5,328.5 c 15.3333,0 30.6667,0 46,0 0,45.667 0,91.333 0,137 104.667,0 209.333,0 314,0 0,-45.667 0,-91.333 0,-137 15.333,0 30.667,0 46,0 0,61 0,122 0,183 -135.333,0 -270.667,0 -406,0 0,-61 0,-122 0,-183 z"
           id="path5" /></g><g
         id="g6"
         style="fill:#2848a9;fill-opacity:1"><path
           style="opacity:1;fill:#2848a9;fill-opacity:1"
           fill="#8cafd1"
           d="m 89.5,373.5 c 75.333,0 150.667,0 226,0 0,15.667 0,31.333 0,47 -75.333,0 -150.667,0 -226,0 0,-15.667 0,-31.333 0,-47 z"
           id="path6" /></g></g></g></svg>
