<?xml version="1.0" encoding="UTF-8"?>
<!DOCTYPE svg PUBLIC "-//W3C//DTD SVG 1.1//EN" "http://www.w3.org/Graphics/SVG/1.1/DTD/svg11.dtd">
<svg xmlns="http://www.w3.org/2000/svg" version="1.1" width="428px" height="512px" style="shape-rendering:geometricPrecision; text-rendering:geometricPrecision; image-rendering:optimizeQuality; fill-rule:evenodd; clip-rule:evenodd" xmlns:xlink="http://www.w3.org/1999/xlink">
<g><path style="opacity:1" fill="#8cafd1" d="M 290.5,-0.5 C 291.5,-0.5 292.5,-0.5 293.5,-0.5C 337.812,60.4715 382.479,121.138 427.5,181.5C 427.5,182.167 427.5,182.833 427.5,183.5C 415.71,192.117 404.043,200.95 392.5,210C 391.365,210.749 390.365,210.583 389.5,209.5C 345.026,148.526 300.36,87.6929 255.5,27C 267.353,17.9696 279.02,8.80292 290.5,-0.5 Z"/></g>
<g><path style="opacity:1" fill="#8cafd1" d="M 208.5,71.5 C 266.147,120.144 323.814,168.81 381.5,217.5C 382.583,218.365 382.749,219.365 382,220.5C 372.833,231.667 363.667,242.833 354.5,254C 352.721,253.956 351.055,253.289 349.5,252C 293.612,203.811 237.446,155.978 181,108.5C 180.333,107.5 180.333,106.5 181,105.5C 190.38,94.2924 199.546,82.9591 208.5,71.5 Z"/></g>
<g><path style="opacity:1" fill="#8cafd1" d="M 141.5,167.5 C 210.146,198.654 278.48,230.654 346.5,263.5C 346.833,263.833 347.167,264.167 347.5,264.5C 341.257,278.651 334.757,292.651 328,306.5C 260.121,274.478 192.288,242.311 124.5,210C 124.043,209.586 123.709,209.086 123.5,208.5C 129.787,194.929 135.787,181.262 141.5,167.5 Z"/></g>
<g><path style="opacity:1" fill="#8cafd1" d="M 103.5,270.5 C 177.591,286.118 251.591,302.118 325.5,318.5C 322.114,333.428 319.114,348.428 316.5,363.5C 243.181,348.004 169.847,332.504 96.5,317C 95.572,316.612 94.9054,315.945 94.5,315C 97.6944,300.194 100.694,285.361 103.5,270.5 Z"/></g>
<g><path style="opacity:1" fill="#8cafd1" d="M -0.5,328.5 C 14.8333,328.5 30.1667,328.5 45.5,328.5C 45.5,374.167 45.5,419.833 45.5,465.5C 150.167,465.5 254.833,465.5 359.5,465.5C 359.5,419.833 359.5,374.167 359.5,328.5C 374.833,328.5 390.167,328.5 405.5,328.5C 405.5,389.5 405.5,450.5 405.5,511.5C 270.167,511.5 134.833,511.5 -0.5,511.5C -0.5,450.5 -0.5,389.5 -0.5,328.5 Z"/></g>
<g><path style="opacity:1" fill="#8cafd1" d="M 89.5,373.5 C 164.833,373.5 240.167,373.5 315.5,373.5C 315.5,389.167 315.5,404.833 315.5,420.5C 240.167,420.5 164.833,420.5 89.5,420.5C 89.5,404.833 89.5,389.167 89.5,373.5 Z"/></g>
</svg>
